M48
;Layer_Color=9474304
;FILE_FORMAT=2:5
INCH,TZ
;TYPE=PLATED
T1F00S00C0.01200
T2F00S00C0.04331
%
T01
X176500Y161500
X183677Y195397
Y199335
X183671Y203263
X182000Y223000
Y233000
X222042
Y223500
X262000Y223000
X251500Y235000
X262000Y198000
Y173000
X251500Y161500
X226500
T02
X240034Y178217
X250034
Y188217
X240034
Y198217
X250034
Y208218
X240034
Y218217
X250034
M30
