G04*
G04 #@! TF.GenerationSoftware,Altium Limited,Altium Designer,23.4.1 (23)*
G04*
G04 Layer_Color=8388736*
%FSLAX25Y25*%
%MOIN*%
G70*
G04*
G04 #@! TF.SameCoordinates,994BBBC9-EF8B-4D44-965E-D27BE21E36CE*
G04*
G04*
G04 #@! TF.FilePolarity,Negative*
G04*
G01*
G75*
%ADD16O,0.07800X0.17797*%
G04:AMPARAMS|DCode=17|XSize=55.24mil|YSize=78.87mil|CornerRadius=15.81mil|HoleSize=0mil|Usage=FLASHONLY|Rotation=90.000|XOffset=0mil|YOffset=0mil|HoleType=Round|Shape=RoundedRectangle|*
%AMROUNDEDRECTD17*
21,1,0.05524,0.04724,0,0,90.0*
21,1,0.02362,0.07887,0,0,90.0*
1,1,0.03162,0.02362,0.01181*
1,1,0.03162,0.02362,-0.01181*
1,1,0.03162,-0.02362,-0.01181*
1,1,0.03162,-0.02362,0.01181*
%
%ADD17ROUNDEDRECTD17*%
G04:AMPARAMS|DCode=18|XSize=69.02mil|YSize=31.62mil|CornerRadius=9.91mil|HoleSize=0mil|Usage=FLASHONLY|Rotation=0.000|XOffset=0mil|YOffset=0mil|HoleType=Round|Shape=RoundedRectangle|*
%AMROUNDEDRECTD18*
21,1,0.06902,0.01181,0,0,0.0*
21,1,0.04921,0.03162,0,0,0.0*
1,1,0.01981,0.02461,-0.00591*
1,1,0.01981,-0.02461,-0.00591*
1,1,0.01981,-0.02461,0.00591*
1,1,0.01981,0.02461,0.00591*
%
%ADD18ROUNDEDRECTD18*%
G04:AMPARAMS|DCode=19|XSize=31.62mil|YSize=69.02mil|CornerRadius=9.91mil|HoleSize=0mil|Usage=FLASHONLY|Rotation=270.000|XOffset=0mil|YOffset=0mil|HoleType=Round|Shape=RoundedRectangle|*
%AMROUNDEDRECTD19*
21,1,0.03162,0.04921,0,0,270.0*
21,1,0.01181,0.06902,0,0,270.0*
1,1,0.01981,-0.02461,-0.00591*
1,1,0.01981,-0.02461,0.00591*
1,1,0.01981,0.02461,0.00591*
1,1,0.01981,0.02461,-0.00591*
%
%ADD19ROUNDEDRECTD19*%
%ADD20C,0.07093*%
D16*
X182000Y228000D02*
D03*
X202000D02*
D03*
X222000D02*
D03*
X212000D02*
D03*
X192000D02*
D03*
D17*
X168415Y208403D02*
D03*
X168410Y170556D02*
D03*
D18*
X183670Y203263D02*
D03*
Y187515D02*
D03*
X183671Y175706D02*
D03*
D19*
X183677Y199335D02*
D03*
Y195398D02*
D03*
Y191461D02*
D03*
Y183587D02*
D03*
Y179650D02*
D03*
D20*
X250034Y178217D02*
D03*
X240034D02*
D03*
X250034Y188217D02*
D03*
X240034D02*
D03*
X250034Y198217D02*
D03*
X240034D02*
D03*
X250034Y208218D02*
D03*
X240034D02*
D03*
X250034Y218217D02*
D03*
X240034D02*
D03*
M02*
