G04*
G04 #@! TF.GenerationSoftware,Altium Limited,Altium Designer,23.4.1 (23)*
G04*
G04 Layer_Physical_Order=1*
G04 Layer_Color=255*
%FSLAX25Y25*%
%MOIN*%
G70*
G04*
G04 #@! TF.SameCoordinates,994BBBC9-EF8B-4D44-965E-D27BE21E36CE*
G04*
G04*
G04 #@! TF.FilePolarity,Positive*
G04*
G01*
G75*
G04:AMPARAMS|DCode=13|XSize=47.24mil|YSize=70.87mil|CornerRadius=11.81mil|HoleSize=0mil|Usage=FLASHONLY|Rotation=90.000|XOffset=0mil|YOffset=0mil|HoleType=Round|Shape=RoundedRectangle|*
%AMROUNDEDRECTD13*
21,1,0.04724,0.04724,0,0,90.0*
21,1,0.02362,0.07087,0,0,90.0*
1,1,0.02362,0.02362,0.01181*
1,1,0.02362,0.02362,-0.01181*
1,1,0.02362,-0.02362,-0.01181*
1,1,0.02362,-0.02362,0.01181*
%
%ADD13ROUNDEDRECTD13*%
G04:AMPARAMS|DCode=14|XSize=61.02mil|YSize=23.62mil|CornerRadius=5.91mil|HoleSize=0mil|Usage=FLASHONLY|Rotation=0.000|XOffset=0mil|YOffset=0mil|HoleType=Round|Shape=RoundedRectangle|*
%AMROUNDEDRECTD14*
21,1,0.06102,0.01181,0,0,0.0*
21,1,0.04921,0.02362,0,0,0.0*
1,1,0.01181,0.02461,-0.00591*
1,1,0.01181,-0.02461,-0.00591*
1,1,0.01181,-0.02461,0.00591*
1,1,0.01181,0.02461,0.00591*
%
%ADD14ROUNDEDRECTD14*%
G04:AMPARAMS|DCode=15|XSize=23.62mil|YSize=61.02mil|CornerRadius=5.91mil|HoleSize=0mil|Usage=FLASHONLY|Rotation=270.000|XOffset=0mil|YOffset=0mil|HoleType=Round|Shape=RoundedRectangle|*
%AMROUNDEDRECTD15*
21,1,0.02362,0.04921,0,0,270.0*
21,1,0.01181,0.06102,0,0,270.0*
1,1,0.01181,-0.02461,-0.00591*
1,1,0.01181,-0.02461,0.00591*
1,1,0.01181,0.02461,0.00591*
1,1,0.01181,0.02461,-0.00591*
%
%ADD15ROUNDEDRECTD15*%
%ADD21O,0.07000X0.16997*%
%ADD22C,0.00800*%
%ADD23C,0.01000*%
%ADD24C,0.06693*%
%ADD25C,0.02400*%
G36*
X199133Y236471D02*
X198791Y236208D01*
X198069Y235268D01*
X197616Y234173D01*
X197461Y232999D01*
Y223001D01*
X197616Y221827D01*
X198069Y220732D01*
X198791Y219792D01*
X199731Y219071D01*
X200471Y218764D01*
Y191133D01*
X198382Y189045D01*
X187677D01*
X187327Y189471D01*
X187475Y189931D01*
X189216D01*
X189802Y190048D01*
X190298Y190379D01*
X193081Y193163D01*
X193413Y193659D01*
X193529Y194244D01*
Y218764D01*
X194269Y219071D01*
X195209Y219792D01*
X195931Y220732D01*
X196384Y221827D01*
X196539Y223001D01*
Y232999D01*
X196384Y234173D01*
X195931Y235268D01*
X195209Y236208D01*
X194867Y236471D01*
X195037Y236971D01*
X198963D01*
X199133Y236471D01*
D02*
G37*
G36*
X209133D02*
X208791Y236208D01*
X208069Y235268D01*
X207616Y234173D01*
X207461Y232999D01*
Y223001D01*
X207616Y221827D01*
X208069Y220732D01*
X208791Y219792D01*
X209731Y219071D01*
X210471Y218764D01*
Y187134D01*
X208453Y185116D01*
X187515D01*
X187360Y185590D01*
X187691Y185986D01*
X199015D01*
X199601Y186102D01*
X200097Y186434D01*
X203081Y189419D01*
X203413Y189915D01*
X203529Y190500D01*
Y218764D01*
X204269Y219071D01*
X205209Y219792D01*
X205931Y220732D01*
X206384Y221827D01*
X206539Y223001D01*
Y232999D01*
X206384Y234173D01*
X205931Y235268D01*
X205209Y236208D01*
X204867Y236471D01*
X205037Y236971D01*
X208963D01*
X209133Y236471D01*
D02*
G37*
G36*
X264971Y230867D02*
Y165159D01*
X258841Y159029D01*
X170689D01*
X164529Y165189D01*
Y167237D01*
X164970Y167472D01*
X165197Y167321D01*
X166048Y167152D01*
X167610D01*
Y170556D01*
X168410D01*
D01*
X167610D01*
Y173961D01*
X166048D01*
X165197Y173792D01*
X164970Y173641D01*
X164529Y173876D01*
Y205086D01*
X164970Y205322D01*
X165202Y205167D01*
X166053Y204998D01*
X167615D01*
Y208403D01*
Y211807D01*
X166053D01*
X165202Y211638D01*
X164970Y211484D01*
X164529Y211719D01*
Y230826D01*
X170674Y236971D01*
X178963D01*
X179133Y236471D01*
X178791Y236208D01*
X178069Y235268D01*
X177616Y234173D01*
X177461Y232999D01*
Y228800D01*
X182000D01*
X186539D01*
Y232999D01*
X186384Y234173D01*
X185931Y235268D01*
X185209Y236208D01*
X184867Y236471D01*
X185037Y236971D01*
X188963D01*
X189133Y236471D01*
X188791Y236208D01*
X188069Y235268D01*
X187616Y234173D01*
X187461Y232999D01*
Y223001D01*
X187616Y221827D01*
X188069Y220732D01*
X188791Y219792D01*
X189731Y219071D01*
X190471Y218764D01*
Y194878D01*
X188583Y192990D01*
X187453D01*
X187312Y193444D01*
X187348Y193757D01*
X187636Y194187D01*
X187759Y194808D01*
Y195989D01*
X187636Y196609D01*
X187348Y197039D01*
X187311Y197366D01*
X187348Y197694D01*
X187636Y198124D01*
X187759Y198744D01*
Y199926D01*
X187636Y200546D01*
X187350Y200973D01*
X187277Y201526D01*
X187629Y202052D01*
X187752Y202673D01*
Y203854D01*
X187629Y204475D01*
X187277Y205001D01*
X186751Y205352D01*
X186131Y205476D01*
X181210D01*
X180589Y205352D01*
X180063Y205001D01*
X179711Y204475D01*
X179588Y203854D01*
Y202673D01*
X179711Y202052D01*
X179997Y201625D01*
X180069Y201072D01*
X179718Y200546D01*
X179594Y199926D01*
Y198744D01*
X179718Y198124D01*
X180005Y197694D01*
X180043Y197366D01*
X180005Y197039D01*
X179718Y196609D01*
X179594Y195989D01*
Y194808D01*
X179718Y194187D01*
X180005Y193757D01*
X180043Y193430D01*
X180005Y193102D01*
X179718Y192672D01*
X179594Y192052D01*
Y190870D01*
X179718Y190250D01*
X180069Y189724D01*
Y189257D01*
X180063Y189253D01*
X179711Y188727D01*
X179588Y188106D01*
Y186925D01*
X179711Y186304D01*
X179997Y185877D01*
X180069Y185324D01*
X179718Y184798D01*
X179594Y184178D01*
Y182996D01*
X179718Y182376D01*
X180005Y181946D01*
X180043Y181618D01*
X180005Y181291D01*
X179718Y180861D01*
X179636Y180450D01*
X183677D01*
X187717D01*
X187636Y180861D01*
X187348Y181291D01*
X187312Y181603D01*
X187457Y182057D01*
X209086D01*
X209672Y182174D01*
X210168Y182505D01*
X213081Y185419D01*
X213413Y185915D01*
X213529Y186500D01*
Y218764D01*
X214269Y219071D01*
X215209Y219792D01*
X215931Y220732D01*
X216384Y221827D01*
X216539Y223001D01*
Y232999D01*
X216384Y234173D01*
X215931Y235268D01*
X215209Y236208D01*
X214867Y236471D01*
X215037Y236971D01*
X218963D01*
X219133Y236471D01*
X218791Y236208D01*
X218069Y235268D01*
X217616Y234173D01*
X217461Y232999D01*
Y223001D01*
X217616Y221827D01*
X218069Y220732D01*
X218791Y219792D01*
X219731Y219071D01*
X220512Y218747D01*
Y179175D01*
X218572Y177235D01*
X187697D01*
X187283Y177679D01*
X187284Y177913D01*
X187636Y178439D01*
X187717Y178850D01*
X183677D01*
X179636D01*
X179718Y178439D01*
X180067Y177917D01*
X180064Y177443D01*
X179712Y176917D01*
X179589Y176296D01*
Y175115D01*
X179712Y174494D01*
X180064Y173968D01*
X180590Y173617D01*
X181210Y173493D01*
X186132D01*
X186752Y173617D01*
X187278Y173968D01*
X187417Y174176D01*
X219205D01*
X219791Y174293D01*
X220287Y174624D01*
X223123Y177460D01*
X223454Y177956D01*
X223571Y178542D01*
Y218781D01*
X224269Y219071D01*
X225209Y219792D01*
X225931Y220732D01*
X226384Y221827D01*
X226539Y223001D01*
Y232999D01*
X226384Y234173D01*
X225931Y235268D01*
X225209Y236208D01*
X224867Y236471D01*
X225037Y236971D01*
X258867D01*
X264971Y230867D01*
D02*
G37*
%LPC*%
G36*
X186539Y227200D02*
X182800D01*
Y218568D01*
X183175Y218617D01*
X184269Y219071D01*
X185209Y219792D01*
X185931Y220732D01*
X186384Y221827D01*
X186539Y223001D01*
Y227200D01*
D02*
G37*
G36*
X181200D02*
X177461D01*
Y223001D01*
X177616Y221827D01*
X178069Y220732D01*
X178791Y219792D01*
X179731Y219071D01*
X180825Y218617D01*
X181200Y218568D01*
Y227200D01*
D02*
G37*
G36*
X250606Y222564D02*
X249461D01*
X248356Y222268D01*
X247365Y221695D01*
X246556Y220886D01*
X245983Y219895D01*
X245687Y218790D01*
Y217645D01*
X245983Y216540D01*
X246556Y215549D01*
X247365Y214739D01*
X248356Y214167D01*
X249461Y213871D01*
X250606D01*
X251711Y214167D01*
X252702Y214739D01*
X253512Y215549D01*
X254084Y216540D01*
X254380Y217645D01*
Y218790D01*
X254084Y219895D01*
X253512Y220886D01*
X252702Y221695D01*
X251711Y222268D01*
X250606Y222564D01*
D02*
G37*
G36*
X240606D02*
X239461D01*
X238356Y222268D01*
X237365Y221695D01*
X236556Y220886D01*
X235983Y219895D01*
X235687Y218790D01*
Y217645D01*
X235983Y216540D01*
X236556Y215549D01*
X237365Y214739D01*
X238356Y214167D01*
X239461Y213871D01*
X240606D01*
X241711Y214167D01*
X242702Y214739D01*
X243512Y215549D01*
X244084Y216540D01*
X244380Y217645D01*
Y218790D01*
X244084Y219895D01*
X243512Y220886D01*
X242702Y221695D01*
X241711Y222268D01*
X240606Y222564D01*
D02*
G37*
G36*
X170777Y211807D02*
X169215D01*
Y209203D01*
X173001D01*
Y209584D01*
X172832Y210435D01*
X172350Y211156D01*
X171628Y211638D01*
X170777Y211807D01*
D02*
G37*
G36*
X173001Y207603D02*
X169215D01*
Y204998D01*
X170777D01*
X171628Y205167D01*
X172350Y205649D01*
X172832Y206370D01*
X173001Y207222D01*
Y207603D01*
D02*
G37*
G36*
X250606Y212564D02*
X249461D01*
X248356Y212268D01*
X247365Y211696D01*
X246556Y210886D01*
X245983Y209895D01*
X245687Y208790D01*
Y207645D01*
X245983Y206540D01*
X246556Y205549D01*
X247365Y204739D01*
X248356Y204167D01*
X249461Y203871D01*
X250606D01*
X251711Y204167D01*
X252702Y204739D01*
X253512Y205549D01*
X254084Y206540D01*
X254380Y207645D01*
Y208790D01*
X254084Y209895D01*
X253512Y210886D01*
X252702Y211696D01*
X251711Y212268D01*
X250606Y212564D01*
D02*
G37*
G36*
X240606D02*
X239461D01*
X238356Y212268D01*
X237365Y211696D01*
X236556Y210886D01*
X235983Y209895D01*
X235687Y208790D01*
Y207645D01*
X235983Y206540D01*
X236556Y205549D01*
X237365Y204739D01*
X238356Y204167D01*
X239461Y203871D01*
X240606D01*
X241711Y204167D01*
X242702Y204739D01*
X243512Y205549D01*
X244084Y206540D01*
X244380Y207645D01*
Y208790D01*
X244084Y209895D01*
X243512Y210886D01*
X242702Y211696D01*
X241711Y212268D01*
X240606Y212564D01*
D02*
G37*
G36*
X250606Y202564D02*
X249461D01*
X248356Y202268D01*
X247569Y201813D01*
X250034Y199349D01*
X252498Y201813D01*
X251711Y202268D01*
X250606Y202564D01*
D02*
G37*
G36*
X240606D02*
X239461D01*
X238356Y202268D01*
X237569Y201813D01*
X240034Y199349D01*
X242498Y201813D01*
X241711Y202268D01*
X240606Y202564D01*
D02*
G37*
G36*
X246438Y200682D02*
X245983Y199895D01*
X245687Y198790D01*
Y197645D01*
X245983Y196540D01*
X246438Y195753D01*
X248902Y198217D01*
X246438Y200682D01*
D02*
G37*
G36*
X236438D02*
X235983Y199895D01*
X235687Y198790D01*
Y197645D01*
X235983Y196540D01*
X236438Y195753D01*
X238902Y198217D01*
X236438Y200682D01*
D02*
G37*
G36*
X253630Y200682D02*
X251165Y198217D01*
X253630Y195753D01*
X254084Y196540D01*
X254380Y197645D01*
Y198790D01*
X254084Y199895D01*
X253630Y200682D01*
D02*
G37*
G36*
X243630D02*
X241165Y198217D01*
X243630Y195753D01*
X244084Y196540D01*
X244380Y197645D01*
Y198790D01*
X244084Y199895D01*
X243630Y200682D01*
D02*
G37*
G36*
X250034Y197086D02*
X247569Y194622D01*
X248356Y194167D01*
X249461Y193871D01*
X250606D01*
X251711Y194167D01*
X252498Y194622D01*
X250034Y197086D01*
D02*
G37*
G36*
X240034D02*
X237569Y194622D01*
X238356Y194167D01*
X239461Y193871D01*
X240606D01*
X241711Y194167D01*
X242498Y194622D01*
X240034Y197086D01*
D02*
G37*
G36*
X250606Y192564D02*
X249461D01*
X248356Y192268D01*
X247365Y191695D01*
X246556Y190886D01*
X245983Y189895D01*
X245687Y188790D01*
Y187645D01*
X245983Y186540D01*
X246556Y185549D01*
X247365Y184739D01*
X248356Y184167D01*
X249461Y183871D01*
X250606D01*
X251711Y184167D01*
X252702Y184739D01*
X253512Y185549D01*
X254084Y186540D01*
X254380Y187645D01*
Y188790D01*
X254084Y189895D01*
X253512Y190886D01*
X252702Y191695D01*
X251711Y192268D01*
X250606Y192564D01*
D02*
G37*
G36*
X240606D02*
X239461D01*
X238356Y192268D01*
X237365Y191695D01*
X236556Y190886D01*
X235983Y189895D01*
X235687Y188790D01*
Y187645D01*
X235983Y186540D01*
X236556Y185549D01*
X237365Y184739D01*
X238356Y184167D01*
X239461Y183871D01*
X240606D01*
X241711Y184167D01*
X242702Y184739D01*
X243512Y185549D01*
X244084Y186540D01*
X244380Y187645D01*
Y188790D01*
X244084Y189895D01*
X243512Y190886D01*
X242702Y191695D01*
X241711Y192268D01*
X240606Y192564D01*
D02*
G37*
G36*
X250606Y182564D02*
X249461D01*
X248356Y182268D01*
X247365Y181695D01*
X246556Y180886D01*
X245983Y179895D01*
X245687Y178790D01*
Y177645D01*
X245983Y176540D01*
X246556Y175549D01*
X247365Y174740D01*
X248356Y174167D01*
X249461Y173871D01*
X250606D01*
X251711Y174167D01*
X252702Y174740D01*
X253512Y175549D01*
X254084Y176540D01*
X254380Y177645D01*
Y178790D01*
X254084Y179895D01*
X253512Y180886D01*
X252702Y181695D01*
X251711Y182268D01*
X250606Y182564D01*
D02*
G37*
G36*
X240606D02*
X239461D01*
X238356Y182268D01*
X237365Y181695D01*
X236556Y180886D01*
X235983Y179895D01*
X235687Y178790D01*
Y177645D01*
X235983Y176540D01*
X236556Y175549D01*
X237365Y174740D01*
X238356Y174167D01*
X239461Y173871D01*
X240606D01*
X241711Y174167D01*
X242702Y174740D01*
X243512Y175549D01*
X244084Y176540D01*
X244380Y177645D01*
Y178790D01*
X244084Y179895D01*
X243512Y180886D01*
X242702Y181695D01*
X241711Y182268D01*
X240606Y182564D01*
D02*
G37*
G36*
X170773Y173961D02*
X169210D01*
Y171356D01*
X172996D01*
Y171738D01*
X172827Y172589D01*
X172345Y173310D01*
X171624Y173792D01*
X170773Y173961D01*
D02*
G37*
G36*
X172996Y169756D02*
X169210D01*
Y167152D01*
X170773D01*
X171624Y167321D01*
X172345Y167803D01*
X172827Y168524D01*
X172996Y169375D01*
Y169756D01*
D02*
G37*
G36*
X220776Y171927D02*
X220776Y171927D01*
X188217D01*
X187670Y171819D01*
X187207Y171509D01*
X187207Y171509D01*
X186052Y170354D01*
X185743Y169891D01*
X185634Y169345D01*
X185634Y169345D01*
Y162654D01*
X185634Y162654D01*
X185743Y162108D01*
X186052Y161645D01*
X187206Y160491D01*
X187206Y160491D01*
X187669Y160181D01*
X188216Y160073D01*
X188216Y160073D01*
X220784D01*
X220784Y160073D01*
X221331Y160181D01*
X221794Y160491D01*
X223015Y161712D01*
X223324Y162175D01*
X223433Y162721D01*
X223433Y162721D01*
Y169270D01*
X223433Y169270D01*
X223324Y169817D01*
X223015Y170280D01*
X221785Y171509D01*
X221322Y171819D01*
X220776Y171927D01*
D02*
G37*
%LPD*%
D13*
X168415Y208403D02*
D03*
X168410Y170556D02*
D03*
D14*
X183670Y203263D02*
D03*
Y187515D02*
D03*
X183671Y175706D02*
D03*
D15*
X183677Y199335D02*
D03*
Y195398D02*
D03*
Y191461D02*
D03*
Y183587D02*
D03*
Y179650D02*
D03*
D21*
X182000Y228000D02*
D03*
X202000D02*
D03*
X222000D02*
D03*
X212000D02*
D03*
X192000D02*
D03*
D22*
X187061Y162654D02*
X188216Y161500D01*
X187061Y162654D02*
Y169345D01*
X188217Y170500D01*
X188216Y161500D02*
X220784D01*
X222006Y162721D01*
X188217Y170500D02*
X220776D01*
X222006Y162721D02*
Y169270D01*
X220776Y170500D02*
X222006Y169270D01*
X188697Y169025D02*
Y163026D01*
Y169025D02*
X192696Y163026D01*
Y169025D02*
Y163026D01*
X194353Y165311D02*
X197781D01*
Y165883D01*
X197495Y166454D01*
X197209Y166739D01*
X196638Y167025D01*
X195781D01*
X195210Y166739D01*
X194638Y166168D01*
X194353Y165311D01*
Y164740D01*
X194638Y163883D01*
X195210Y163312D01*
X195781Y163026D01*
X196638D01*
X197209Y163312D01*
X197781Y163883D01*
X199066Y169025D02*
Y163026D01*
Y169025D02*
X201351Y163026D01*
X203637Y169025D02*
X201351Y163026D01*
X203637Y169025D02*
Y163026D01*
X205350Y165311D02*
X208778D01*
Y165883D01*
X208493Y166454D01*
X208207Y166739D01*
X207636Y167025D01*
X206779D01*
X206207Y166739D01*
X205636Y166168D01*
X205350Y165311D01*
Y164740D01*
X205636Y163883D01*
X206207Y163312D01*
X206779Y163026D01*
X207636D01*
X208207Y163312D01*
X208778Y163883D01*
X213206Y166168D02*
X212920Y166739D01*
X212063Y167025D01*
X211206D01*
X210349Y166739D01*
X210064Y166168D01*
X210349Y165597D01*
X210921Y165311D01*
X212349Y165026D01*
X212920Y164740D01*
X213206Y164169D01*
Y163883D01*
X212920Y163312D01*
X212063Y163026D01*
X211206D01*
X210349Y163312D01*
X210064Y163883D01*
X215034Y169025D02*
X215320Y168739D01*
X215605Y169025D01*
X215320Y169310D01*
X215034Y169025D01*
X215320Y167025D02*
Y163026D01*
X220661Y168168D02*
X220090Y168739D01*
X219233Y169025D01*
X218091D01*
X217234Y168739D01*
X216662Y168168D01*
Y167596D01*
X216948Y167025D01*
X217234Y166739D01*
X217805Y166454D01*
X219519Y165883D01*
X220090Y165597D01*
X220376Y165311D01*
X220661Y164740D01*
Y163883D01*
X220090Y163312D01*
X219233Y163026D01*
X218091D01*
X217234Y163312D01*
X216662Y163883D01*
D23*
X192000Y194244D02*
Y228000D01*
X183677Y191461D02*
X189216D01*
X192000Y194244D01*
X222042Y223500D02*
Y233000D01*
X183671Y175706D02*
X219205D01*
X222042Y178542D02*
Y223500D01*
X219205Y175706D02*
X222042Y178542D01*
X183677Y183587D02*
X209086D01*
X212000Y186500D02*
Y228000D01*
X209086Y183587D02*
X212000Y186500D01*
X202000Y190500D02*
Y228000D01*
X183671Y187515D02*
X199015D01*
X202000Y190500D01*
D24*
X250034Y178217D02*
D03*
X240034D02*
D03*
X250034Y188217D02*
D03*
X240034D02*
D03*
X250034Y198217D02*
D03*
X240034D02*
D03*
X250034Y208218D02*
D03*
X240034D02*
D03*
X250034Y218217D02*
D03*
X240034D02*
D03*
D25*
X182000Y223000D02*
D03*
X222042Y223500D02*
D03*
Y233000D02*
D03*
X182000D02*
D03*
X183677Y195397D02*
D03*
Y199335D02*
D03*
X183671Y203263D02*
D03*
X262000Y223000D02*
D03*
Y198000D02*
D03*
Y173000D02*
D03*
X251500Y235000D02*
D03*
Y161500D02*
D03*
X226500D02*
D03*
X176500D02*
D03*
M02*
