G04*
G04 #@! TF.GenerationSoftware,Altium Limited,Altium Designer,23.4.1 (23)*
G04*
G04 Layer_Color=65535*
%FSLAX25Y25*%
%MOIN*%
G70*
G04*
G04 #@! TF.SameCoordinates,994BBBC9-EF8B-4D44-965E-D27BE21E36CE*
G04*
G04*
G04 #@! TF.FilePolarity,Positive*
G04*
G01*
G75*
%ADD10C,0.00984*%
%ADD11C,0.00400*%
%ADD12C,0.00600*%
D10*
X181303Y206442D02*
G03*
X181293Y206442I-5J492D01*
G01*
D11*
X183684Y206014D02*
Y209128D01*
Y169769D02*
Y172907D01*
X173262Y169769D02*
X183684D01*
X173262Y209128D02*
X183684D01*
X165389Y204548D02*
X165421Y174390D01*
X256844Y161603D02*
Y234832D01*
X233222Y161603D02*
Y234832D01*
X229285Y190934D02*
Y205501D01*
X233222D01*
X229285Y190934D02*
X233222D01*
Y234832D02*
X256844D01*
X233222Y161603D02*
X256844D01*
D12*
X174528Y195900D02*
Y194615D01*
X174671Y194186D01*
X174814Y194043D01*
X175100Y193900D01*
X175528D01*
X175814Y194043D01*
X175956Y194186D01*
X176099Y194615D01*
Y195900D01*
X173100D01*
X176099Y193229D02*
X173100D01*
X176099D02*
Y191944D01*
X175956Y191515D01*
X175814Y191372D01*
X175528Y191230D01*
X175242D01*
X174957Y191372D01*
X174814Y191515D01*
X174671Y191944D01*
Y193229D01*
Y192229D02*
X173100Y191230D01*
X176099Y189701D02*
X175956Y189987D01*
X175671Y190273D01*
X175385Y190416D01*
X174957Y190558D01*
X174243D01*
X173814Y190416D01*
X173529Y190273D01*
X173243Y189987D01*
X173100Y189701D01*
Y189130D01*
X173243Y188844D01*
X173529Y188559D01*
X173814Y188416D01*
X174243Y188273D01*
X174957D01*
X175385Y188416D01*
X175671Y188559D01*
X175956Y188844D01*
X176099Y189130D01*
Y189701D01*
X175385Y185431D02*
X175671Y185574D01*
X175956Y185859D01*
X176099Y186145D01*
Y186716D01*
X175956Y187002D01*
X175671Y187288D01*
X175385Y187430D01*
X174957Y187573D01*
X174243D01*
X173814Y187430D01*
X173529Y187288D01*
X173243Y187002D01*
X173100Y186716D01*
Y186145D01*
X173243Y185859D01*
X173529Y185574D01*
X173814Y185431D01*
X174243D01*
Y186145D02*
Y185431D01*
X214400Y213401D02*
Y216400D01*
Y213401D02*
X213115D01*
X212686Y213544D01*
X212543Y213686D01*
X212400Y213972D01*
Y214258D01*
X212543Y214543D01*
X212686Y214686D01*
X213115Y214829D01*
X214400D01*
X213400D02*
X212400Y216400D01*
X211729Y213401D02*
X209730Y216400D01*
Y213401D02*
X211729Y216400D01*
X204400Y213401D02*
Y216400D01*
X205400Y213401D02*
X203400D01*
X203043D02*
X201044Y216400D01*
Y213401D02*
X203043Y216400D01*
X196043Y213401D02*
X196329Y213544D01*
X196614Y213829D01*
X196757Y214115D01*
X196900Y214543D01*
Y215257D01*
X196757Y215686D01*
X196614Y215971D01*
X196329Y216257D01*
X196043Y216400D01*
X195472D01*
X195186Y216257D01*
X194900Y215971D01*
X194758Y215686D01*
X194615Y215257D01*
Y214543D01*
X194758Y214115D01*
X194900Y213829D01*
X195186Y213544D01*
X195472Y213401D01*
X196043D01*
X191915Y213829D02*
X192201Y213544D01*
X192630Y213401D01*
X193201D01*
X193629Y213544D01*
X193915Y213829D01*
Y214115D01*
X193772Y214400D01*
X193629Y214543D01*
X193344Y214686D01*
X192487Y214972D01*
X192201Y215115D01*
X192058Y215257D01*
X191915Y215543D01*
Y215971D01*
X192201Y216257D01*
X192630Y216400D01*
X193201D01*
X193629Y216257D01*
X193915Y215971D01*
X189102Y214115D02*
X189244Y213829D01*
X189530Y213544D01*
X189816Y213401D01*
X190387D01*
X190673Y213544D01*
X190958Y213829D01*
X191101Y214115D01*
X191244Y214543D01*
Y215257D01*
X191101Y215686D01*
X190958Y215971D01*
X190673Y216257D01*
X190387Y216400D01*
X189816D01*
X189530Y216257D01*
X189244Y215971D01*
X189102Y215686D01*
X183758Y214115D02*
X183900Y213829D01*
X184186Y213544D01*
X184472Y213401D01*
X185043D01*
X185329Y213544D01*
X185614Y213829D01*
X185757Y214115D01*
X185900Y214543D01*
Y215257D01*
X185757Y215686D01*
X185614Y215971D01*
X185329Y216257D01*
X185043Y216400D01*
X184472D01*
X184186Y216257D01*
X183900Y215971D01*
X183758Y215686D01*
Y215257D01*
X184472D02*
X183758D01*
X183072Y213401D02*
Y216400D01*
Y213401D02*
X181072Y216400D01*
Y213401D02*
Y216400D01*
X180244Y213401D02*
Y216400D01*
Y213401D02*
X179244D01*
X178816Y213544D01*
X178530Y213829D01*
X178387Y214115D01*
X178244Y214543D01*
Y215257D01*
X178387Y215686D01*
X178530Y215971D01*
X178816Y216257D01*
X179244Y216400D01*
X180244D01*
X226114Y213401D02*
X224543D01*
X225400Y214543D01*
X224972D01*
X224686Y214686D01*
X224543Y214829D01*
X224400Y215257D01*
Y215543D01*
X224543Y215971D01*
X224829Y216257D01*
X225257Y216400D01*
X225686D01*
X226114Y216257D01*
X226257Y216114D01*
X226400Y215829D01*
X223586Y216114D02*
X223729Y216257D01*
X223586Y216400D01*
X223444Y216257D01*
X223586Y216114D01*
X222501Y213401D02*
X220930D01*
X221787Y214543D01*
X221358D01*
X221073Y214686D01*
X220930Y214829D01*
X220787Y215257D01*
Y215543D01*
X220930Y215971D01*
X221215Y216257D01*
X221644Y216400D01*
X222072D01*
X222501Y216257D01*
X222644Y216114D01*
X222786Y215829D01*
X220116Y214400D02*
X219259Y216400D01*
X218402Y214400D02*
X219259Y216400D01*
M02*
