M48
;Layer_Color=9474304
;FILE_FORMAT=2:5
INCH,TZ
;TYPE=PLATED
T1F00S00C0.01200
%
T01
X167746Y159253
X182746
X197746
X212746
X215222Y165578
X225222
X227746Y159253
X235222Y165578
X245222
Y173579
X242746Y159253
X257746
X272746
X265222Y173579
X265393Y193895
Y197833
Y205707
Y209644
X240500Y220500
X235177Y220485
X229108Y214455
X228819Y206151
X228818Y201355
X230500Y197000
X225872Y193003
X227140Y181140
X236982Y185065
X211000Y198000
Y211500
X217852Y212321
X222648
X225177Y241866
X227746Y248252
X235177Y241866
X245177
X242746Y248252
X257746
X255177Y241866
X272746Y248252
X212746
X197746
X197841Y234008
X201770Y234014
X193904Y234008
X189967
X189500Y223000
X178156Y234008
X174212Y234014
X182746Y248252
X186500Y193000
X189500Y183577
M30
