G04*
G04 #@! TF.GenerationSoftware,Altium Limited,Altium Designer,23.4.1 (23)*
G04*
G04 Layer_Color=255*
%FSLAX25Y25*%
%MOIN*%
G70*
G04*
G04 #@! TF.SameCoordinates,47F6D48D-2594-4982-AAFB-0A648C4F03F0*
G04*
G04*
G04 #@! TF.FilePolarity,Positive*
G04*
G01*
G75*
G04:AMPARAMS|DCode=14|XSize=61.02mil|YSize=23.62mil|CornerRadius=5.91mil|HoleSize=0mil|Usage=FLASHONLY|Rotation=0.000|XOffset=0mil|YOffset=0mil|HoleType=Round|Shape=RoundedRectangle|*
%AMROUNDEDRECTD14*
21,1,0.06102,0.01181,0,0,0.0*
21,1,0.04921,0.02362,0,0,0.0*
1,1,0.01181,0.02461,-0.00591*
1,1,0.01181,-0.02461,-0.00591*
1,1,0.01181,-0.02461,0.00591*
1,1,0.01181,0.02461,0.00591*
%
%ADD14ROUNDEDRECTD14*%
G04:AMPARAMS|DCode=15|XSize=23.62mil|YSize=61.02mil|CornerRadius=5.91mil|HoleSize=0mil|Usage=FLASHONLY|Rotation=270.000|XOffset=0mil|YOffset=0mil|HoleType=Round|Shape=RoundedRectangle|*
%AMROUNDEDRECTD15*
21,1,0.02362,0.04921,0,0,270.0*
21,1,0.01181,0.06102,0,0,270.0*
1,1,0.01181,-0.02461,-0.00591*
1,1,0.01181,-0.02461,0.00591*
1,1,0.01181,0.02461,0.00591*
1,1,0.01181,0.02461,-0.00591*
%
%ADD15ROUNDEDRECTD15*%
G04:AMPARAMS|DCode=16|XSize=70.87mil|YSize=47.24mil|CornerRadius=11.81mil|HoleSize=0mil|Usage=FLASHONLY|Rotation=180.000|XOffset=0mil|YOffset=0mil|HoleType=Round|Shape=RoundedRectangle|*
%AMROUNDEDRECTD16*
21,1,0.07087,0.02362,0,0,180.0*
21,1,0.04724,0.04724,0,0,180.0*
1,1,0.02362,-0.02362,0.01181*
1,1,0.02362,0.02362,0.01181*
1,1,0.02362,0.02362,-0.01181*
1,1,0.02362,-0.02362,-0.01181*
%
%ADD16ROUNDEDRECTD16*%
G04:AMPARAMS|DCode=17|XSize=45.67mil|YSize=57.09mil|CornerRadius=11.42mil|HoleSize=0mil|Usage=FLASHONLY|Rotation=90.000|XOffset=0mil|YOffset=0mil|HoleType=Round|Shape=RoundedRectangle|*
%AMROUNDEDRECTD17*
21,1,0.04567,0.03425,0,0,90.0*
21,1,0.02284,0.05709,0,0,90.0*
1,1,0.02284,0.01713,0.01142*
1,1,0.02284,0.01713,-0.01142*
1,1,0.02284,-0.01713,-0.01142*
1,1,0.02284,-0.01713,0.01142*
%
%ADD17ROUNDEDRECTD17*%
G04:AMPARAMS|DCode=18|XSize=21.65mil|YSize=39.37mil|CornerRadius=5.41mil|HoleSize=0mil|Usage=FLASHONLY|Rotation=180.000|XOffset=0mil|YOffset=0mil|HoleType=Round|Shape=RoundedRectangle|*
%AMROUNDEDRECTD18*
21,1,0.02165,0.02854,0,0,180.0*
21,1,0.01083,0.03937,0,0,180.0*
1,1,0.01083,-0.00541,0.01427*
1,1,0.01083,0.00541,0.01427*
1,1,0.01083,0.00541,-0.01427*
1,1,0.01083,-0.00541,-0.01427*
%
%ADD18ROUNDEDRECTD18*%
G04:AMPARAMS|DCode=19|XSize=21.65mil|YSize=39.37mil|CornerRadius=5.41mil|HoleSize=0mil|Usage=FLASHONLY|Rotation=180.000|XOffset=0mil|YOffset=0mil|HoleType=Round|Shape=RoundedRectangle|*
%AMROUNDEDRECTD19*
21,1,0.02165,0.02854,0,0,180.0*
21,1,0.01083,0.03937,0,0,180.0*
1,1,0.01083,-0.00541,0.01427*
1,1,0.01083,0.00541,0.01427*
1,1,0.01083,0.00541,-0.01427*
1,1,0.01083,-0.00541,-0.01427*
%
%ADD19ROUNDEDRECTD19*%
G04:AMPARAMS|DCode=20|XSize=47.24mil|YSize=70.87mil|CornerRadius=11.81mil|HoleSize=0mil|Usage=FLASHONLY|Rotation=90.000|XOffset=0mil|YOffset=0mil|HoleType=Round|Shape=RoundedRectangle|*
%AMROUNDEDRECTD20*
21,1,0.04724,0.04724,0,0,90.0*
21,1,0.02362,0.07087,0,0,90.0*
1,1,0.02362,0.02362,0.01181*
1,1,0.02362,0.02362,-0.01181*
1,1,0.02362,-0.02362,-0.01181*
1,1,0.02362,-0.02362,0.01181*
%
%ADD20ROUNDEDRECTD20*%
G04:AMPARAMS|DCode=21|XSize=47.24mil|YSize=70.87mil|CornerRadius=11.81mil|HoleSize=0mil|Usage=FLASHONLY|Rotation=0.000|XOffset=0mil|YOffset=0mil|HoleType=Round|Shape=RoundedRectangle|*
%AMROUNDEDRECTD21*
21,1,0.04724,0.04724,0,0,0.0*
21,1,0.02362,0.07087,0,0,0.0*
1,1,0.02362,0.01181,-0.02362*
1,1,0.02362,-0.01181,-0.02362*
1,1,0.02362,-0.01181,0.02362*
1,1,0.02362,0.01181,0.02362*
%
%ADD21ROUNDEDRECTD21*%
G04:AMPARAMS|DCode=22|XSize=61.02mil|YSize=23.62mil|CornerRadius=5.91mil|HoleSize=0mil|Usage=FLASHONLY|Rotation=270.000|XOffset=0mil|YOffset=0mil|HoleType=Round|Shape=RoundedRectangle|*
%AMROUNDEDRECTD22*
21,1,0.06102,0.01181,0,0,270.0*
21,1,0.04921,0.02362,0,0,270.0*
1,1,0.01181,-0.00591,-0.02461*
1,1,0.01181,-0.00591,0.02461*
1,1,0.01181,0.00591,0.02461*
1,1,0.01181,0.00591,-0.02461*
%
%ADD22ROUNDEDRECTD22*%
G04:AMPARAMS|DCode=23|XSize=23.62mil|YSize=61.02mil|CornerRadius=5.91mil|HoleSize=0mil|Usage=FLASHONLY|Rotation=180.000|XOffset=0mil|YOffset=0mil|HoleType=Round|Shape=RoundedRectangle|*
%AMROUNDEDRECTD23*
21,1,0.02362,0.04921,0,0,180.0*
21,1,0.01181,0.06102,0,0,180.0*
1,1,0.01181,-0.00591,0.02461*
1,1,0.01181,0.00591,0.02461*
1,1,0.01181,0.00591,-0.02461*
1,1,0.01181,-0.00591,-0.02461*
%
%ADD23ROUNDEDRECTD23*%
%ADD24O,0.01063X0.05906*%
%ADD25O,0.05906X0.01063*%
%ADD39O,0.17000X0.07000*%
D14*
X265392Y213581D02*
D03*
Y209644D02*
D03*
Y205707D02*
D03*
Y201770D02*
D03*
X175140Y205643D02*
D03*
D15*
X265393Y197834D02*
D03*
Y193895D02*
D03*
X175140Y213518D02*
D03*
Y209581D02*
D03*
D16*
X280649Y218699D02*
D03*
X280651Y188776D02*
D03*
D17*
X265222Y165578D02*
D03*
Y173579D02*
D03*
X245222Y165578D02*
D03*
Y173579D02*
D03*
X255222D02*
D03*
Y165578D02*
D03*
X235222D02*
D03*
Y173579D02*
D03*
X225222D02*
D03*
Y165578D02*
D03*
X215222D02*
D03*
Y173579D02*
D03*
X185222D02*
D03*
Y165578D02*
D03*
X175222Y173579D02*
D03*
Y165578D02*
D03*
X225177Y233866D02*
D03*
Y241866D02*
D03*
X235177Y233866D02*
D03*
Y241866D02*
D03*
X245177Y233866D02*
D03*
Y241866D02*
D03*
X255177Y233866D02*
D03*
Y241866D02*
D03*
X265177D02*
D03*
Y233866D02*
D03*
D18*
X203977Y177390D02*
D03*
X196496D02*
D03*
Y165578D02*
D03*
X203977D02*
D03*
D19*
X200237Y177390D02*
D03*
D20*
X159851Y200527D02*
D03*
X159884Y218700D02*
D03*
D21*
X169063Y249274D02*
D03*
X206909Y249270D02*
D03*
D22*
X174212Y234014D02*
D03*
X186022Y234015D02*
D03*
X201770D02*
D03*
D23*
X178157Y234008D02*
D03*
X182094D02*
D03*
X189968D02*
D03*
X193905D02*
D03*
X197842D02*
D03*
D24*
X231077Y220485D02*
D03*
X229108D02*
D03*
X227140D02*
D03*
X225171D02*
D03*
X223203D02*
D03*
X221234D02*
D03*
X219266D02*
D03*
X217297D02*
D03*
X215329D02*
D03*
X213360D02*
D03*
X211392D02*
D03*
X209423D02*
D03*
Y187021D02*
D03*
X211392D02*
D03*
X213360D02*
D03*
X215329D02*
D03*
X217297D02*
D03*
X219266D02*
D03*
X221234D02*
D03*
X223203D02*
D03*
X225171D02*
D03*
X227140D02*
D03*
X229108D02*
D03*
X231077D02*
D03*
D25*
X203518Y214580D02*
D03*
X203518Y212611D02*
D03*
X203518Y210643D02*
D03*
X203518Y208674D02*
D03*
X203518Y206706D02*
D03*
X203518Y204737D02*
D03*
X203518Y202769D02*
D03*
X203518Y200800D02*
D03*
X203518Y198832D02*
D03*
X203518Y196863D02*
D03*
X203518Y194895D02*
D03*
X203518Y192926D02*
D03*
X236982Y192926D02*
D03*
X236982Y194895D02*
D03*
X236982Y196863D02*
D03*
X236982Y198832D02*
D03*
X236982Y200800D02*
D03*
X236982Y202769D02*
D03*
X236982Y204737D02*
D03*
X236982Y206706D02*
D03*
X236982Y208674D02*
D03*
X236982Y210643D02*
D03*
X236982Y212611D02*
D03*
X236982Y214580D02*
D03*
D39*
X167000Y191000D02*
D03*
M02*
