G04*
G04 #@! TF.GenerationSoftware,Altium Limited,Altium Designer,23.4.1 (23)*
G04*
G04 Layer_Color=13010237*
%FSLAX25Y25*%
%MOIN*%
G70*
G04*
G04 #@! TF.SameCoordinates,47F6D48D-2594-4982-AAFB-0A648C4F03F0*
G04*
G04*
G04 #@! TF.FilePolarity,Positive*
G04*
G01*
G75*
%ADD13C,0.00600*%
D13*
X261879Y151250D02*
Y148036D01*
X262094Y147393D01*
X262522Y146965D01*
X263165Y146750D01*
X263593D01*
X264236Y146965D01*
X264665Y147393D01*
X264879Y148036D01*
Y151250D01*
X266336Y150178D02*
Y150393D01*
X266550Y150821D01*
X266764Y151035D01*
X267193Y151250D01*
X268050D01*
X268478Y151035D01*
X268692Y150821D01*
X268906Y150393D01*
Y149964D01*
X268692Y149536D01*
X268264Y148893D01*
X266121Y146750D01*
X269121D01*
X184486Y260750D02*
Y257536D01*
X184701Y256893D01*
X185129Y256465D01*
X185772Y256251D01*
X186200D01*
X186843Y256465D01*
X187272Y256893D01*
X187486Y257536D01*
Y260750D01*
X191299Y260107D02*
X191085Y260535D01*
X190442Y260750D01*
X190014D01*
X189371Y260535D01*
X188943Y259893D01*
X188728Y258821D01*
Y257750D01*
X188943Y256893D01*
X189371Y256465D01*
X190014Y256251D01*
X190228D01*
X190871Y256465D01*
X191299Y256893D01*
X191514Y257536D01*
Y257750D01*
X191299Y258393D01*
X190871Y258821D01*
X190228Y259036D01*
X190014D01*
X189371Y258821D01*
X188943Y258393D01*
X188728Y257750D01*
X286751Y199379D02*
X289964D01*
X290607Y199594D01*
X291035Y200022D01*
X291249Y200665D01*
Y201093D01*
X291035Y201736D01*
X290607Y202165D01*
X289964Y202379D01*
X286751D01*
Y206192D02*
Y204050D01*
X288679Y203836D01*
X288464Y204050D01*
X288250Y204693D01*
Y205335D01*
X288464Y205978D01*
X288893Y206406D01*
X289536Y206621D01*
X289964D01*
X290607Y206406D01*
X291035Y205978D01*
X291249Y205335D01*
Y204693D01*
X291035Y204050D01*
X290821Y203836D01*
X290393Y203621D01*
X244082Y259678D02*
X243868Y260107D01*
X243440Y260535D01*
X243011Y260750D01*
X242154D01*
X241726Y260535D01*
X241297Y260107D01*
X241083Y259678D01*
X240869Y259036D01*
Y257964D01*
X241083Y257322D01*
X241297Y256893D01*
X241726Y256465D01*
X242154Y256251D01*
X243011D01*
X243440Y256465D01*
X243868Y256893D01*
X244082Y257322D01*
X247917Y260107D02*
X247703Y260535D01*
X247060Y260750D01*
X246632D01*
X245989Y260535D01*
X245561Y259893D01*
X245346Y258821D01*
Y257750D01*
X245561Y256893D01*
X245989Y256465D01*
X246632Y256251D01*
X246846D01*
X247489Y256465D01*
X247917Y256893D01*
X248131Y257536D01*
Y257750D01*
X247917Y258393D01*
X247489Y258821D01*
X246846Y259036D01*
X246632D01*
X245989Y258821D01*
X245561Y258393D01*
X245346Y257750D01*
X234475Y259678D02*
X234261Y260107D01*
X233832Y260535D01*
X233404Y260750D01*
X232547D01*
X232119Y260535D01*
X231690Y260107D01*
X231476Y259678D01*
X231261Y259036D01*
Y257964D01*
X231476Y257322D01*
X231690Y256893D01*
X232119Y256465D01*
X232547Y256251D01*
X233404D01*
X233832Y256465D01*
X234261Y256893D01*
X234475Y257322D01*
X238310Y260750D02*
X236168D01*
X235953Y258821D01*
X236168Y259036D01*
X236810Y259250D01*
X237453D01*
X238096Y259036D01*
X238524Y258607D01*
X238738Y257964D01*
Y257536D01*
X238524Y256893D01*
X238096Y256465D01*
X237453Y256251D01*
X236810D01*
X236168Y256465D01*
X235953Y256679D01*
X235739Y257107D01*
X224368Y150178D02*
X224154Y150607D01*
X223725Y151035D01*
X223297Y151250D01*
X222440D01*
X222011Y151035D01*
X221583Y150607D01*
X221369Y150178D01*
X221154Y149536D01*
Y148464D01*
X221369Y147822D01*
X221583Y147393D01*
X222011Y146965D01*
X222440Y146750D01*
X223297D01*
X223725Y146965D01*
X224154Y147393D01*
X224368Y147822D01*
X227774Y151250D02*
X225632Y148250D01*
X228846D01*
X227774Y151250D02*
Y146750D01*
X223975Y259678D02*
X223761Y260107D01*
X223332Y260535D01*
X222904Y260750D01*
X222047D01*
X221619Y260535D01*
X221190Y260107D01*
X220976Y259678D01*
X220761Y259036D01*
Y257964D01*
X220976Y257322D01*
X221190Y256893D01*
X221619Y256465D01*
X222047Y256251D01*
X222904D01*
X223332Y256465D01*
X223761Y256893D01*
X223975Y257322D01*
X225668Y260750D02*
X228024D01*
X226739Y259036D01*
X227381D01*
X227810Y258821D01*
X228024Y258607D01*
X228239Y257964D01*
Y257536D01*
X228024Y256893D01*
X227596Y256465D01*
X226953Y256251D01*
X226310D01*
X225668Y256465D01*
X225453Y256679D01*
X225239Y257107D01*
X214975Y150178D02*
X214761Y150607D01*
X214332Y151035D01*
X213904Y151250D01*
X213047D01*
X212618Y151035D01*
X212190Y150607D01*
X211976Y150178D01*
X211761Y149536D01*
Y148464D01*
X211976Y147822D01*
X212190Y147393D01*
X212618Y146965D01*
X213047Y146750D01*
X213904D01*
X214332Y146965D01*
X214761Y147393D01*
X214975Y147822D01*
X216453Y150178D02*
Y150393D01*
X216668Y150821D01*
X216882Y151035D01*
X217310Y151250D01*
X218167D01*
X218596Y151035D01*
X218810Y150821D01*
X219024Y150393D01*
Y149964D01*
X218810Y149536D01*
X218382Y148893D01*
X216239Y146750D01*
X219238D01*
X251497Y151250D02*
Y146750D01*
Y151250D02*
X253425D01*
X254068Y151035D01*
X254282Y150821D01*
X254497Y150393D01*
Y149964D01*
X254282Y149536D01*
X254068Y149321D01*
X253425Y149107D01*
X251497D01*
X252997D02*
X254497Y146750D01*
X258074Y151250D02*
X255932D01*
X255718Y149321D01*
X255932Y149536D01*
X256575Y149750D01*
X257217D01*
X257860Y149536D01*
X258289Y149107D01*
X258503Y148464D01*
Y148036D01*
X258289Y147393D01*
X257860Y146965D01*
X257217Y146750D01*
X256575D01*
X255932Y146965D01*
X255718Y147179D01*
X255504Y147607D01*
X251390Y260750D02*
Y256251D01*
Y260750D02*
X253318D01*
X253961Y260535D01*
X254175Y260321D01*
X254389Y259893D01*
Y259464D01*
X254175Y259036D01*
X253961Y258821D01*
X253318Y258607D01*
X251390D01*
X252890D02*
X254389Y256251D01*
X257539Y260750D02*
X255396Y257750D01*
X258610D01*
X257539Y260750D02*
Y256251D01*
X261497Y260750D02*
Y256251D01*
Y260750D02*
X263425D01*
X264068Y260535D01*
X264282Y260321D01*
X264496Y259893D01*
Y259464D01*
X264282Y259036D01*
X264068Y258821D01*
X263425Y258607D01*
X261497D01*
X262997D02*
X264496Y256251D01*
X265932Y260750D02*
X268289D01*
X267003Y259036D01*
X267646D01*
X268074Y258821D01*
X268289Y258607D01*
X268503Y257964D01*
Y257536D01*
X268289Y256893D01*
X267860Y256465D01*
X267217Y256251D01*
X266575D01*
X265932Y256465D01*
X265718Y256679D01*
X265504Y257107D01*
X231497Y151250D02*
Y146750D01*
Y151250D02*
X233425D01*
X234068Y151035D01*
X234282Y150821D01*
X234496Y150393D01*
Y149964D01*
X234282Y149536D01*
X234068Y149321D01*
X233425Y149107D01*
X231497D01*
X232997D02*
X234496Y146750D01*
X235718Y150178D02*
Y150393D01*
X235932Y150821D01*
X236146Y151035D01*
X236575Y151250D01*
X237432D01*
X237860Y151035D01*
X238074Y150821D01*
X238289Y150393D01*
Y149964D01*
X238074Y149536D01*
X237646Y148893D01*
X235504Y146750D01*
X238503D01*
X242461Y151250D02*
Y146750D01*
Y151250D02*
X244389D01*
X245032Y151035D01*
X245246Y150821D01*
X245461Y150393D01*
Y149964D01*
X245246Y149536D01*
X245032Y149321D01*
X244389Y149107D01*
X242461D01*
X243961D02*
X245461Y146750D01*
X246467Y150393D02*
X246896Y150607D01*
X247539Y151250D01*
Y146750D01*
X173433Y151250D02*
Y146750D01*
X176004D01*
X176496Y150393D02*
X176925Y150607D01*
X177567Y151250D01*
Y146750D01*
X185439Y150178D02*
X185225Y150607D01*
X184797Y151035D01*
X184368Y151250D01*
X183511D01*
X183083Y151035D01*
X182654Y150607D01*
X182440Y150178D01*
X182226Y149536D01*
Y148464D01*
X182440Y147822D01*
X182654Y147393D01*
X183083Y146965D01*
X183511Y146750D01*
X184368D01*
X184797Y146965D01*
X185225Y147393D01*
X185439Y147822D01*
X186703Y150393D02*
X187132Y150607D01*
X187774Y151250D01*
Y146750D01*
X196379Y151250D02*
Y148036D01*
X196594Y147393D01*
X197022Y146965D01*
X197665Y146750D01*
X198093D01*
X198736Y146965D01*
X199164Y147393D01*
X199379Y148036D01*
Y151250D01*
X201050D02*
X203406D01*
X202121Y149536D01*
X202764D01*
X203192Y149321D01*
X203406Y149107D01*
X203621Y148464D01*
Y148036D01*
X203406Y147393D01*
X202978Y146965D01*
X202335Y146750D01*
X201693D01*
X201050Y146965D01*
X200835Y147179D01*
X200621Y147607D01*
X149250Y205772D02*
X152464D01*
X153107Y205986D01*
X153535Y206415D01*
X153750Y207058D01*
Y207486D01*
X153535Y208129D01*
X153107Y208557D01*
X152464Y208772D01*
X149250D01*
Y212157D02*
X152250Y210014D01*
Y213228D01*
X149250Y212157D02*
X153750D01*
M02*
