G04*
G04 #@! TF.GenerationSoftware,Altium Limited,Altium Designer,23.4.1 (23)*
G04*
G04 Layer_Physical_Order=2*
G04 Layer_Color=16711680*
%FSLAX25Y25*%
%MOIN*%
G70*
G04*
G04 #@! TF.SameCoordinates,47F6D48D-2594-4982-AAFB-0A648C4F03F0*
G04*
G04*
G04 #@! TF.FilePolarity,Positive*
G04*
G01*
G75*
%ADD12C,0.00800*%
%ADD40C,0.01200*%
%ADD41C,0.02400*%
G36*
X284129Y244786D02*
Y162718D01*
X276281Y154870D01*
X164213D01*
X156372Y162712D01*
Y244785D01*
X164215Y252628D01*
X276286Y252628D01*
X284129Y244786D01*
D02*
G37*
%LPC*%
G36*
X255574Y243866D02*
X254779D01*
X254044Y243562D01*
X253776Y243294D01*
X246578D01*
X246310Y243562D01*
X245574Y243866D01*
X244779D01*
X244044Y243562D01*
X243776Y243294D01*
X236578D01*
X236310Y243562D01*
X235575Y243866D01*
X234779D01*
X234044Y243562D01*
X233776Y243294D01*
X226578D01*
X226310Y243562D01*
X225574Y243866D01*
X224779D01*
X224044Y243562D01*
X223776Y243294D01*
X178920D01*
X178920Y243294D01*
X178374Y243185D01*
X177911Y242876D01*
X177911Y242876D01*
X173203Y238167D01*
X172893Y237704D01*
X172785Y237158D01*
X172785Y237158D01*
Y235415D01*
X172517Y235147D01*
X172212Y234412D01*
Y233616D01*
X172517Y232881D01*
X172785Y232613D01*
Y193000D01*
Y170288D01*
X172785Y170288D01*
X172893Y169742D01*
X173203Y169279D01*
X177912Y164569D01*
X177912Y164569D01*
X178190Y164384D01*
X178375Y164260D01*
X178921Y164151D01*
X213821D01*
X214089Y163883D01*
X214824Y163578D01*
X215620D01*
X216355Y163883D01*
X216623Y164151D01*
X223821D01*
X224089Y163883D01*
X224824Y163578D01*
X225620D01*
X226355Y163883D01*
X226623Y164151D01*
X233821D01*
X234089Y163883D01*
X234824Y163578D01*
X235620D01*
X236355Y163883D01*
X236623Y164151D01*
X243821D01*
X244089Y163883D01*
X244824Y163578D01*
X245620D01*
X246355Y163883D01*
X246623Y164151D01*
X271768D01*
X271768Y164151D01*
X272314Y164260D01*
X272778Y164569D01*
X277509Y169301D01*
X277509Y169301D01*
X277695Y169579D01*
X277819Y169764D01*
X277927Y170310D01*
Y237152D01*
X277927Y237152D01*
X277819Y237699D01*
X277509Y238162D01*
X272795Y242876D01*
X272332Y243185D01*
X271786Y243294D01*
X271786Y243294D01*
X256578D01*
X256310Y243562D01*
X255574Y243866D01*
D02*
G37*
G36*
X168345Y222197D02*
X161654D01*
X161186Y222103D01*
X160789Y221838D01*
X159635Y220684D01*
X159370Y220287D01*
X159276Y219819D01*
Y187250D01*
X159370Y186782D01*
X159635Y186385D01*
X160856Y185164D01*
X161253Y184898D01*
X161721Y184805D01*
X168270D01*
X168739Y184898D01*
X169136Y185164D01*
X170365Y186393D01*
X170630Y186790D01*
X170723Y187258D01*
Y219818D01*
X170630Y220286D01*
X170365Y220683D01*
X169210Y221838D01*
X168813Y222103D01*
X168345Y222197D01*
D02*
G37*
%LPD*%
G36*
X275073Y236561D02*
Y170902D01*
X271177Y167006D01*
X246623D01*
X246355Y167274D01*
X246112Y167375D01*
X246212Y167875D01*
X260742D01*
X261210Y167968D01*
X261607Y168233D01*
X264952Y171579D01*
X265620D01*
X266355Y171883D01*
X266918Y172446D01*
X267222Y173181D01*
Y173976D01*
X266918Y174711D01*
X266355Y175274D01*
X265620Y175578D01*
X264824D01*
X264089Y175274D01*
X263527Y174711D01*
X263222Y173976D01*
Y173309D01*
X260235Y170322D01*
X244909D01*
X242723Y172507D01*
Y173177D01*
X243222Y173181D01*
X243527Y172446D01*
X244089Y171883D01*
X244824Y171579D01*
X245620D01*
X246355Y171883D01*
X246918Y172446D01*
X247222Y173181D01*
Y173976D01*
X246918Y174711D01*
X246446Y175183D01*
Y200131D01*
X264084D01*
X264552Y200224D01*
X264949Y200489D01*
X266258Y201799D01*
X266523Y202196D01*
X266617Y202664D01*
Y204102D01*
X267089Y204574D01*
X267393Y205309D01*
Y206105D01*
X267089Y206840D01*
X266526Y207403D01*
X266471Y207426D01*
Y207926D01*
X266526Y207949D01*
X267089Y208511D01*
X267393Y209246D01*
Y210042D01*
X267089Y210777D01*
X266526Y211340D01*
X265791Y211644D01*
X264995D01*
X264260Y211340D01*
X263788Y210868D01*
X230144D01*
X229676Y210774D01*
X229279Y210509D01*
X227954Y209184D01*
X227689Y208787D01*
X227595Y208319D01*
Y207756D01*
X227123Y207284D01*
X226819Y206549D01*
Y205753D01*
X227123Y205018D01*
X227686Y204455D01*
X228421Y204151D01*
X229217D01*
X229952Y204455D01*
X230515Y205018D01*
X230819Y205753D01*
Y206549D01*
X230515Y207284D01*
X230043Y207756D01*
Y207812D01*
X230651Y208421D01*
X263788D01*
X264260Y207949D01*
X264316Y207926D01*
Y207426D01*
X264260Y207403D01*
X263698Y206840D01*
X263393Y206105D01*
Y205309D01*
X263698Y204574D01*
X264170Y204102D01*
Y203170D01*
X263577Y202578D01*
X230423D01*
X229951Y203050D01*
X229216Y203355D01*
X228421D01*
X227685Y203050D01*
X227123Y202487D01*
X226818Y201752D01*
Y200957D01*
X227123Y200222D01*
X227685Y199659D01*
X228421Y199355D01*
X229216D01*
X229951Y199659D01*
X230423Y200131D01*
X243999D01*
Y175183D01*
X243527Y174711D01*
X243222Y173976D01*
X242723Y173980D01*
Y190000D01*
X242630Y190468D01*
X242365Y190865D01*
X239365Y193865D01*
X238968Y194130D01*
X238500Y194223D01*
X227480D01*
X227005Y194698D01*
X226270Y195003D01*
X225475D01*
X224739Y194698D01*
X224177Y194136D01*
X223872Y193401D01*
Y192605D01*
X224177Y191870D01*
X224739Y191307D01*
X225475Y191003D01*
X226270D01*
X227005Y191307D01*
X227474Y191777D01*
X237993D01*
X240277Y189493D01*
Y172000D01*
X240370Y171532D01*
X240635Y171135D01*
X243537Y168233D01*
X243934Y167968D01*
X244288Y167897D01*
X244376Y167517D01*
X244367Y167389D01*
X244089Y167274D01*
X243821Y167006D01*
X236623D01*
X236355Y167274D01*
X235620Y167578D01*
X234824D01*
X234089Y167274D01*
X233821Y167006D01*
X226623D01*
X226355Y167274D01*
X225620Y167578D01*
X224824D01*
X224089Y167274D01*
X223821Y167006D01*
X216623D01*
X216355Y167274D01*
X215620Y167578D01*
X214824D01*
X214089Y167274D01*
X213821Y167006D01*
X179513D01*
X175640Y170879D01*
Y191573D01*
X185099D01*
X185367Y191305D01*
X186102Y191000D01*
X186898D01*
X187633Y191305D01*
X188196Y191867D01*
X188500Y192602D01*
Y193398D01*
X188196Y194133D01*
X187633Y194695D01*
X186898Y195000D01*
X186102D01*
X185367Y194695D01*
X185099Y194427D01*
X175640D01*
Y232613D01*
X175908Y232881D01*
X176212Y233616D01*
Y234412D01*
X175908Y235147D01*
X175640Y235415D01*
Y236567D01*
X179512Y240439D01*
X190501D01*
X190708Y239939D01*
X189102Y238332D01*
X188837Y237935D01*
X188744Y237467D01*
Y235613D01*
X188272Y235141D01*
X187967Y234406D01*
Y233610D01*
X188272Y232875D01*
X188834Y232312D01*
X189569Y232008D01*
X190365D01*
X191100Y232312D01*
X191663Y232875D01*
X191686Y232930D01*
X192186D01*
X192209Y232875D01*
X192771Y232312D01*
X193506Y232008D01*
X194302D01*
X195037Y232312D01*
X195600Y232875D01*
X195623Y232930D01*
X196123D01*
X196146Y232875D01*
X196618Y232403D01*
Y185159D01*
X196711Y184691D01*
X196976Y184294D01*
X200995Y180275D01*
X201392Y180010D01*
X201860Y179917D01*
X225535D01*
X226007Y179445D01*
X226742Y179140D01*
X227538D01*
X228273Y179445D01*
X228836Y180007D01*
X229140Y180742D01*
Y181538D01*
X228836Y182273D01*
X228273Y182836D01*
X227538Y183140D01*
X226742D01*
X226007Y182836D01*
X225535Y182364D01*
X202367D01*
X199065Y185666D01*
Y232403D01*
X199537Y232875D01*
X199557Y232924D01*
X200057D01*
X200075Y232881D01*
X200547Y232409D01*
Y186781D01*
X200640Y186312D01*
X200905Y185915D01*
X202620Y184200D01*
X203017Y183935D01*
X203485Y183842D01*
X235377D01*
X235849Y183370D01*
X236584Y183065D01*
X237380D01*
X238115Y183370D01*
X238678Y183932D01*
X238982Y184668D01*
Y185463D01*
X238678Y186198D01*
X238115Y186761D01*
X237380Y187065D01*
X236584D01*
X235849Y186761D01*
X235377Y186289D01*
X203992D01*
X202994Y187287D01*
Y232409D01*
X203466Y232881D01*
X203770Y233616D01*
Y234412D01*
X203500Y235063D01*
X203702Y235563D01*
X216431D01*
X216629Y235366D01*
Y213926D01*
X216157Y213454D01*
X215852Y212719D01*
Y211924D01*
X216157Y211189D01*
X216719Y210626D01*
X217454Y210321D01*
X218250D01*
X218985Y210626D01*
X219548Y211189D01*
X219852Y211924D01*
Y212719D01*
X219548Y213454D01*
X219075Y213926D01*
Y235873D01*
X218982Y236341D01*
X218717Y236738D01*
X217920Y237535D01*
X218072Y237997D01*
X218102Y238035D01*
X220350D01*
X221424Y236961D01*
Y213926D01*
X220952Y213454D01*
X220648Y212719D01*
Y211924D01*
X220952Y211189D01*
X221515Y210626D01*
X222250Y210321D01*
X223046D01*
X223781Y210626D01*
X224343Y211189D01*
X224648Y211924D01*
Y212719D01*
X224343Y213454D01*
X223871Y213926D01*
Y237467D01*
X223778Y237935D01*
X223513Y238332D01*
X221907Y239939D01*
X222114Y240439D01*
X223776D01*
X224044Y240171D01*
X224779Y239866D01*
X225574D01*
X226310Y240171D01*
X226578Y240439D01*
X233749D01*
Y221886D01*
X233481Y221618D01*
X233177Y220883D01*
Y220088D01*
X233481Y219353D01*
X234044Y218790D01*
X234779Y218485D01*
X235575D01*
X236310Y218790D01*
X236872Y219353D01*
X237177Y220088D01*
Y220883D01*
X236872Y221618D01*
X236604Y221886D01*
Y240439D01*
X243776D01*
X244044Y240171D01*
X244779Y239866D01*
X245574D01*
X246310Y240171D01*
X246578Y240439D01*
X253776D01*
X254044Y240171D01*
X254779Y239866D01*
X255574D01*
X256310Y240171D01*
X256578Y240439D01*
X271195D01*
X275073Y236561D01*
D02*
G37*
%LPC*%
G36*
X229505Y216455D02*
X228710D01*
X227975Y216150D01*
X227412Y215588D01*
X227108Y214853D01*
Y214057D01*
X227412Y213322D01*
X227975Y212759D01*
X228710Y212455D01*
X229505D01*
X230241Y212759D01*
X230713Y213231D01*
X268829D01*
X270556Y211504D01*
Y200791D01*
X268822Y199057D01*
X266998D01*
X266526Y199529D01*
X265791Y199833D01*
X264995D01*
X264260Y199529D01*
X263698Y198966D01*
X263393Y198231D01*
Y197435D01*
X263698Y196700D01*
X264260Y196138D01*
X264995Y195833D01*
X265791D01*
X266526Y196138D01*
X266998Y196610D01*
X269329D01*
X269797Y196703D01*
X270194Y196968D01*
X272645Y199419D01*
X272910Y199816D01*
X273003Y200285D01*
Y212010D01*
X272910Y212479D01*
X272645Y212876D01*
X270200Y215320D01*
X269804Y215585D01*
X269335Y215679D01*
X230713D01*
X230241Y216150D01*
X229505Y216455D01*
D02*
G37*
%LPD*%
D12*
X168270Y186029D02*
X169500Y187258D01*
X161721Y186029D02*
X168270D01*
X169500Y187258D02*
Y219818D01*
X160500Y187250D02*
X161721Y186029D01*
X160500Y187250D02*
Y219819D01*
X168345Y220973D02*
X169500Y219818D01*
X161654Y220973D02*
X168345D01*
X160500Y219819D02*
X161654Y220973D01*
X229108Y214455D02*
X269335D01*
X225872Y193000D02*
X238500D01*
X241500Y190000D01*
Y172000D02*
Y190000D01*
Y172000D02*
X244402Y169098D01*
X260742D01*
X265222Y173579D01*
X269335Y214455D02*
X271780Y212010D01*
X269329Y197833D02*
X271780Y200285D01*
Y212010D01*
X265393Y197833D02*
X269329D01*
X236982Y185065D02*
X236982Y185065D01*
X203485Y185065D02*
X236982D01*
X264084Y201355D02*
X265393Y202664D01*
X245222Y201355D02*
X264084D01*
X265393Y202664D02*
Y205707D01*
X194821Y236787D02*
X216938D01*
X217852Y212321D02*
Y235873D01*
X216938Y236787D02*
X217852Y235873D01*
X191759Y239259D02*
X220856D01*
X222648Y212321D02*
Y237467D01*
X220856Y239259D02*
X222648Y237467D01*
X201770Y186781D02*
X203485Y185065D01*
X201770Y186781D02*
Y234014D01*
X201860Y181140D02*
X227140D01*
X197841Y185159D02*
X201860Y181140D01*
X197841Y185159D02*
Y234008D01*
X228818Y201355D02*
X245222D01*
Y173579D02*
Y201349D01*
X228819Y206151D02*
Y208319D01*
X230144Y209644D01*
X265393D01*
X189967Y237467D02*
X191759Y239259D01*
X193904Y235870D02*
X194821Y236787D01*
X193904Y234008D02*
Y235870D01*
X189967Y234008D02*
Y237467D01*
X167987Y187632D02*
X161989D01*
X167987D02*
X161989Y191631D01*
X167987D02*
X161989D01*
X164274Y193288D02*
Y196716D01*
X164845D01*
X165416Y196430D01*
X165702Y196144D01*
X165988Y195573D01*
Y194716D01*
X165702Y194145D01*
X165131Y193574D01*
X164274Y193288D01*
X163702D01*
X162846Y193574D01*
X162274Y194145D01*
X161989Y194716D01*
Y195573D01*
X162274Y196144D01*
X162846Y196716D01*
X167987Y198001D02*
X161989D01*
X167987D02*
X161989Y200287D01*
X167987Y202572D02*
X161989Y200287D01*
X167987Y202572D02*
X161989D01*
X164274Y204286D02*
Y207714D01*
X164845D01*
X165416Y207428D01*
X165702Y207142D01*
X165988Y206571D01*
Y205714D01*
X165702Y205143D01*
X165131Y204571D01*
X164274Y204286D01*
X163702D01*
X162846Y204571D01*
X162274Y205143D01*
X161989Y205714D01*
Y206571D01*
X162274Y207142D01*
X162846Y207714D01*
X165131Y212141D02*
X165702Y211855D01*
X165988Y210999D01*
Y210141D01*
X165702Y209284D01*
X165131Y208999D01*
X164559Y209284D01*
X164274Y209856D01*
X163988Y211284D01*
X163702Y211855D01*
X163131Y212141D01*
X162846D01*
X162274Y211855D01*
X161989Y210999D01*
Y210141D01*
X162274Y209284D01*
X162846Y208999D01*
X167987Y213969D02*
X167702Y214255D01*
X167987Y214541D01*
X168273Y214255D01*
X167987Y213969D01*
X165988Y214255D02*
X161989D01*
X167130Y219597D02*
X167702Y219025D01*
X167987Y218168D01*
Y217026D01*
X167702Y216169D01*
X167130Y215598D01*
X166559D01*
X165988Y215883D01*
X165702Y216169D01*
X165416Y216740D01*
X164845Y218454D01*
X164559Y219025D01*
X164274Y219311D01*
X163702Y219597D01*
X162846D01*
X162274Y219025D01*
X161989Y218168D01*
Y217026D01*
X162274Y216169D01*
X162846Y215598D01*
D40*
X215222Y165578D02*
X225222D01*
X235222D01*
X245222D01*
X271768D01*
X276500Y170310D02*
Y237152D01*
X271768Y165578D02*
X276500Y170310D01*
X235177Y241866D02*
X245177D01*
X255177D01*
X271786D01*
X276500Y237152D01*
X174212Y234014D02*
Y237158D01*
X178920Y241866D02*
X225177D01*
X174212Y237158D02*
X178920Y241866D01*
X178921Y165578D02*
X215222D01*
X174212Y170288D02*
Y193000D01*
Y170288D02*
X178921Y165578D01*
X174212Y193000D02*
Y234014D01*
X235177Y220485D02*
Y241866D01*
X174212Y193000D02*
X186500D01*
X225177Y241866D02*
X235177D01*
D41*
X189500Y183577D02*
D03*
X230500Y197000D02*
D03*
X240500Y220500D02*
D03*
X225872Y193003D02*
D03*
X229108Y214455D02*
D03*
X265222Y173579D02*
D03*
X211000Y211500D02*
D03*
Y198000D02*
D03*
X189500Y223000D02*
D03*
X167746Y159253D02*
D03*
X182746D02*
D03*
X197746D02*
D03*
X212746D02*
D03*
X227746D02*
D03*
X242746D02*
D03*
X257746D02*
D03*
X272746D02*
D03*
Y248252D02*
D03*
X257746D02*
D03*
X242746D02*
D03*
X227746D02*
D03*
X212746D02*
D03*
X197746D02*
D03*
X182746D02*
D03*
X265393Y193895D02*
D03*
X178156Y234008D02*
D03*
X245222Y165578D02*
D03*
X235222D02*
D03*
X255177Y241866D02*
D03*
X245177D02*
D03*
X236982Y185065D02*
D03*
X235177Y220485D02*
D03*
X186500Y193000D02*
D03*
X228819Y206151D02*
D03*
X228818Y201355D02*
D03*
X222648Y212321D02*
D03*
X217852D02*
D03*
X235177Y241866D02*
D03*
X225222Y165578D02*
D03*
X215222D02*
D03*
X245222Y173579D02*
D03*
X265393Y197833D02*
D03*
Y205707D02*
D03*
Y209644D02*
D03*
X227140Y181140D02*
D03*
X201770Y234014D02*
D03*
X197841Y234008D02*
D03*
X193904D02*
D03*
X189967D02*
D03*
X174212Y234014D02*
D03*
X225177Y241866D02*
D03*
M02*
