G04*
G04 #@! TF.GenerationSoftware,Altium Limited,Altium Designer,23.4.1 (23)*
G04*
G04 Layer_Physical_Order=1*
G04 Layer_Color=255*
%FSLAX25Y25*%
%MOIN*%
G70*
G04*
G04 #@! TF.SameCoordinates,47F6D48D-2594-4982-AAFB-0A648C4F03F0*
G04*
G04*
G04 #@! TF.FilePolarity,Positive*
G04*
G01*
G75*
%ADD12C,0.00800*%
G04:AMPARAMS|DCode=14|XSize=61.02mil|YSize=23.62mil|CornerRadius=5.91mil|HoleSize=0mil|Usage=FLASHONLY|Rotation=0.000|XOffset=0mil|YOffset=0mil|HoleType=Round|Shape=RoundedRectangle|*
%AMROUNDEDRECTD14*
21,1,0.06102,0.01181,0,0,0.0*
21,1,0.04921,0.02362,0,0,0.0*
1,1,0.01181,0.02461,-0.00591*
1,1,0.01181,-0.02461,-0.00591*
1,1,0.01181,-0.02461,0.00591*
1,1,0.01181,0.02461,0.00591*
%
%ADD14ROUNDEDRECTD14*%
G04:AMPARAMS|DCode=15|XSize=23.62mil|YSize=61.02mil|CornerRadius=5.91mil|HoleSize=0mil|Usage=FLASHONLY|Rotation=270.000|XOffset=0mil|YOffset=0mil|HoleType=Round|Shape=RoundedRectangle|*
%AMROUNDEDRECTD15*
21,1,0.02362,0.04921,0,0,270.0*
21,1,0.01181,0.06102,0,0,270.0*
1,1,0.01181,-0.02461,-0.00591*
1,1,0.01181,-0.02461,0.00591*
1,1,0.01181,0.02461,0.00591*
1,1,0.01181,0.02461,-0.00591*
%
%ADD15ROUNDEDRECTD15*%
G04:AMPARAMS|DCode=16|XSize=70.87mil|YSize=47.24mil|CornerRadius=11.81mil|HoleSize=0mil|Usage=FLASHONLY|Rotation=180.000|XOffset=0mil|YOffset=0mil|HoleType=Round|Shape=RoundedRectangle|*
%AMROUNDEDRECTD16*
21,1,0.07087,0.02362,0,0,180.0*
21,1,0.04724,0.04724,0,0,180.0*
1,1,0.02362,-0.02362,0.01181*
1,1,0.02362,0.02362,0.01181*
1,1,0.02362,0.02362,-0.01181*
1,1,0.02362,-0.02362,-0.01181*
%
%ADD16ROUNDEDRECTD16*%
G04:AMPARAMS|DCode=17|XSize=45.67mil|YSize=57.09mil|CornerRadius=11.42mil|HoleSize=0mil|Usage=FLASHONLY|Rotation=90.000|XOffset=0mil|YOffset=0mil|HoleType=Round|Shape=RoundedRectangle|*
%AMROUNDEDRECTD17*
21,1,0.04567,0.03425,0,0,90.0*
21,1,0.02284,0.05709,0,0,90.0*
1,1,0.02284,0.01713,0.01142*
1,1,0.02284,0.01713,-0.01142*
1,1,0.02284,-0.01713,-0.01142*
1,1,0.02284,-0.01713,0.01142*
%
%ADD17ROUNDEDRECTD17*%
G04:AMPARAMS|DCode=18|XSize=21.65mil|YSize=39.37mil|CornerRadius=5.41mil|HoleSize=0mil|Usage=FLASHONLY|Rotation=180.000|XOffset=0mil|YOffset=0mil|HoleType=Round|Shape=RoundedRectangle|*
%AMROUNDEDRECTD18*
21,1,0.02165,0.02854,0,0,180.0*
21,1,0.01083,0.03937,0,0,180.0*
1,1,0.01083,-0.00541,0.01427*
1,1,0.01083,0.00541,0.01427*
1,1,0.01083,0.00541,-0.01427*
1,1,0.01083,-0.00541,-0.01427*
%
%ADD18ROUNDEDRECTD18*%
G04:AMPARAMS|DCode=19|XSize=21.65mil|YSize=39.37mil|CornerRadius=5.41mil|HoleSize=0mil|Usage=FLASHONLY|Rotation=180.000|XOffset=0mil|YOffset=0mil|HoleType=Round|Shape=RoundedRectangle|*
%AMROUNDEDRECTD19*
21,1,0.02165,0.02854,0,0,180.0*
21,1,0.01083,0.03937,0,0,180.0*
1,1,0.01083,-0.00541,0.01427*
1,1,0.01083,0.00541,0.01427*
1,1,0.01083,0.00541,-0.01427*
1,1,0.01083,-0.00541,-0.01427*
%
%ADD19ROUNDEDRECTD19*%
G04:AMPARAMS|DCode=20|XSize=47.24mil|YSize=70.87mil|CornerRadius=11.81mil|HoleSize=0mil|Usage=FLASHONLY|Rotation=90.000|XOffset=0mil|YOffset=0mil|HoleType=Round|Shape=RoundedRectangle|*
%AMROUNDEDRECTD20*
21,1,0.04724,0.04724,0,0,90.0*
21,1,0.02362,0.07087,0,0,90.0*
1,1,0.02362,0.02362,0.01181*
1,1,0.02362,0.02362,-0.01181*
1,1,0.02362,-0.02362,-0.01181*
1,1,0.02362,-0.02362,0.01181*
%
%ADD20ROUNDEDRECTD20*%
G04:AMPARAMS|DCode=21|XSize=47.24mil|YSize=70.87mil|CornerRadius=11.81mil|HoleSize=0mil|Usage=FLASHONLY|Rotation=0.000|XOffset=0mil|YOffset=0mil|HoleType=Round|Shape=RoundedRectangle|*
%AMROUNDEDRECTD21*
21,1,0.04724,0.04724,0,0,0.0*
21,1,0.02362,0.07087,0,0,0.0*
1,1,0.02362,0.01181,-0.02362*
1,1,0.02362,-0.01181,-0.02362*
1,1,0.02362,-0.01181,0.02362*
1,1,0.02362,0.01181,0.02362*
%
%ADD21ROUNDEDRECTD21*%
G04:AMPARAMS|DCode=22|XSize=61.02mil|YSize=23.62mil|CornerRadius=5.91mil|HoleSize=0mil|Usage=FLASHONLY|Rotation=270.000|XOffset=0mil|YOffset=0mil|HoleType=Round|Shape=RoundedRectangle|*
%AMROUNDEDRECTD22*
21,1,0.06102,0.01181,0,0,270.0*
21,1,0.04921,0.02362,0,0,270.0*
1,1,0.01181,-0.00591,-0.02461*
1,1,0.01181,-0.00591,0.02461*
1,1,0.01181,0.00591,0.02461*
1,1,0.01181,0.00591,-0.02461*
%
%ADD22ROUNDEDRECTD22*%
G04:AMPARAMS|DCode=23|XSize=23.62mil|YSize=61.02mil|CornerRadius=5.91mil|HoleSize=0mil|Usage=FLASHONLY|Rotation=180.000|XOffset=0mil|YOffset=0mil|HoleType=Round|Shape=RoundedRectangle|*
%AMROUNDEDRECTD23*
21,1,0.02362,0.04921,0,0,180.0*
21,1,0.01181,0.06102,0,0,180.0*
1,1,0.01181,-0.00591,0.02461*
1,1,0.01181,0.00591,0.02461*
1,1,0.01181,0.00591,-0.02461*
1,1,0.01181,-0.00591,-0.02461*
%
%ADD23ROUNDEDRECTD23*%
%ADD24O,0.01063X0.05906*%
%ADD25O,0.05906X0.01063*%
%ADD39O,0.17000X0.07000*%
%ADD40C,0.01200*%
%ADD41C,0.02400*%
G36*
X284129Y244786D02*
Y222312D01*
X283629Y221981D01*
X283011Y222104D01*
X281449D01*
Y218699D01*
Y215294D01*
X283011D01*
X283629Y215417D01*
X284129Y215086D01*
Y192391D01*
X283629Y192059D01*
X283013Y192181D01*
X281451D01*
Y188776D01*
Y185371D01*
X283013D01*
X283629Y185494D01*
X284129Y185161D01*
Y162718D01*
X276281Y154870D01*
X164213D01*
X156372Y162712D01*
Y196914D01*
X156872Y197245D01*
X157489Y197122D01*
X159051D01*
Y200527D01*
Y203932D01*
X157489D01*
X156872Y203809D01*
X156372Y204141D01*
Y215108D01*
X156872Y215424D01*
X157522Y215295D01*
X159084D01*
Y218700D01*
Y222105D01*
X157522D01*
X156872Y221975D01*
X156372Y222291D01*
Y244785D01*
X164215Y252628D01*
X165366D01*
X165756Y252128D01*
X165658Y251637D01*
Y250074D01*
X172468D01*
Y251637D01*
X172370Y252128D01*
X172760Y252628D01*
X203215D01*
X203603Y252128D01*
X203504Y251632D01*
Y250069D01*
X210314D01*
Y251632D01*
X210215Y252128D01*
X210603Y252628D01*
X276286Y252628D01*
X284129Y244786D01*
D02*
G37*
%LPC*%
G36*
X172468Y248474D02*
X169863D01*
Y244688D01*
X170244D01*
X171095Y244858D01*
X171817Y245340D01*
X172299Y246061D01*
X172468Y246912D01*
Y248474D01*
D02*
G37*
G36*
X168263D02*
X165658D01*
Y246912D01*
X165827Y246061D01*
X166309Y245340D01*
X167031Y244858D01*
X167882Y244688D01*
X168263D01*
Y248474D01*
D02*
G37*
G36*
X210314Y248469D02*
X207709D01*
Y244684D01*
X208090D01*
X208941Y244853D01*
X209663Y245335D01*
X210145Y246056D01*
X210314Y246907D01*
Y248469D01*
D02*
G37*
G36*
X206109D02*
X203504D01*
Y246907D01*
X203674Y246056D01*
X204156Y245335D01*
X204877Y244853D01*
X205728Y244684D01*
X206109D01*
Y248469D01*
D02*
G37*
G36*
X256889Y244988D02*
X253464D01*
X252707Y244837D01*
X252064Y244408D01*
X251635Y243766D01*
X251541Y243294D01*
X248812D01*
X248718Y243766D01*
X248289Y244408D01*
X247647Y244837D01*
X246889Y244988D01*
X243464D01*
X242706Y244837D01*
X242064Y244408D01*
X241635Y243766D01*
X241541Y243294D01*
X238812D01*
X238718Y243766D01*
X238289Y244408D01*
X237647Y244837D01*
X236889Y244988D01*
X233464D01*
X232706Y244837D01*
X232064Y244408D01*
X231635Y243766D01*
X231541Y243294D01*
X228812D01*
X228718Y243766D01*
X228289Y244408D01*
X227647Y244837D01*
X226889Y244988D01*
X223464D01*
X222707Y244837D01*
X222064Y244408D01*
X221635Y243766D01*
X221501Y243090D01*
X217866D01*
X217398Y242997D01*
X217001Y242731D01*
X214464Y240194D01*
X214199Y239797D01*
X214106Y239329D01*
Y224565D01*
X213606Y224215D01*
X213360Y224264D01*
X212840Y224160D01*
X212783Y224122D01*
X212376Y223880D01*
X211969Y224122D01*
X211912Y224160D01*
X211392Y224264D01*
X211146Y224215D01*
X210646Y224565D01*
Y239329D01*
X210553Y239797D01*
X210288Y240194D01*
X207755Y242726D01*
X207358Y242992D01*
X206890Y243085D01*
X188564D01*
X188095Y242992D01*
X187698Y242726D01*
X185157Y240185D01*
X184892Y239788D01*
X184799Y239320D01*
Y237725D01*
X184429Y237478D01*
X184356Y237369D01*
X183755D01*
X183687Y237471D01*
X183227Y237778D01*
X182684Y237886D01*
X181503D01*
X180961Y237778D01*
X180500Y237471D01*
X180495Y237463D01*
X179995D01*
X179894Y237615D01*
X179368Y237967D01*
X178957Y238049D01*
Y234008D01*
Y229967D01*
X179368Y230049D01*
X179894Y230401D01*
X179995Y230553D01*
X180495D01*
X180500Y230545D01*
X180870Y230298D01*
Y217116D01*
X180963Y216648D01*
X181228Y216251D01*
X183764Y213715D01*
X184161Y213450D01*
X184629Y213357D01*
X199438D01*
X199788Y212857D01*
X199739Y212611D01*
X199843Y212092D01*
X200137Y211651D01*
X199881Y211221D01*
X199842Y211163D01*
X199739Y210643D01*
X199842Y210124D01*
X199882Y210065D01*
X200137Y209634D01*
X199843Y209194D01*
X199739Y208674D01*
X199843Y208155D01*
X200137Y207714D01*
X199881Y207284D01*
X199842Y207226D01*
X199739Y206706D01*
X199842Y206187D01*
X199882Y206128D01*
X200137Y205697D01*
X199843Y205257D01*
X199739Y204737D01*
X199843Y204218D01*
X199881Y204160D01*
X200136Y203729D01*
X199842Y203289D01*
X199739Y202769D01*
X199842Y202250D01*
X199881Y202191D01*
X200137Y201760D01*
X199843Y201320D01*
X199739Y200800D01*
X199788Y200556D01*
X199437Y200056D01*
X183074D01*
X182223Y200906D01*
Y211903D01*
X182130Y212371D01*
X181865Y212769D01*
X180250Y214383D01*
X179853Y214649D01*
X179385Y214742D01*
X178850D01*
X178603Y215111D01*
X178144Y215418D01*
X177601Y215526D01*
X172680D01*
X172137Y215418D01*
X171677Y215111D01*
X171370Y214651D01*
X171262Y214108D01*
Y212927D01*
X171370Y212385D01*
X171677Y211925D01*
X171685Y211919D01*
Y211419D01*
X171533Y211318D01*
X171181Y210792D01*
X171100Y210381D01*
X175140D01*
X179181D01*
X179099Y210792D01*
X178748Y211318D01*
X178596Y211419D01*
Y211919D01*
X178603Y211925D01*
X179222Y211951D01*
X179777Y211397D01*
Y200399D01*
X179870Y199931D01*
X180135Y199534D01*
X181120Y198549D01*
X180929Y198087D01*
X178144D01*
X176364Y199866D01*
Y203635D01*
X177600D01*
X178143Y203743D01*
X178603Y204050D01*
X178910Y204510D01*
X179018Y205053D01*
Y206234D01*
X178910Y206776D01*
X178624Y207205D01*
X178603Y207236D01*
X178671Y207792D01*
X178748Y207843D01*
X179099Y208369D01*
X179181Y208781D01*
X175140D01*
X171100D01*
X171181Y208369D01*
X171533Y207843D01*
X171609Y207792D01*
X171677Y207236D01*
X171656Y207206D01*
X171369Y206776D01*
X171261Y206234D01*
Y205053D01*
X171369Y204510D01*
X171677Y204050D01*
X172137Y203743D01*
X172679Y203635D01*
X173917D01*
Y199360D01*
X174010Y198891D01*
X174275Y198495D01*
X176772Y195998D01*
X177169Y195733D01*
X177637Y195640D01*
X199196D01*
X199583Y195140D01*
X199535Y194895D01*
X199584Y194650D01*
X199197Y194150D01*
X188179D01*
X187633Y194695D01*
X186898Y195000D01*
X186102D01*
X185367Y194695D01*
X184804Y194133D01*
X184500Y193398D01*
Y192602D01*
X184804Y191867D01*
X185367Y191305D01*
X186102Y191000D01*
X186898D01*
X187633Y191305D01*
X188031Y191703D01*
X200531D01*
X200577Y191672D01*
X201097Y191569D01*
X205939D01*
X206459Y191672D01*
X206505Y191703D01*
X212772D01*
X213240Y191796D01*
X213637Y192061D01*
X216194Y194618D01*
X216460Y195015D01*
X216553Y195483D01*
Y210154D01*
X217053Y210488D01*
X217454Y210321D01*
X218250D01*
X218985Y210626D01*
X219548Y211189D01*
X219852Y211924D01*
Y212313D01*
X220352Y212524D01*
X220648Y212238D01*
Y211924D01*
X220952Y211189D01*
X221515Y210626D01*
X222250Y210321D01*
X223046D01*
X223781Y210626D01*
X224149Y210994D01*
X224649Y210787D01*
Y194608D01*
X224177Y194136D01*
X223872Y193401D01*
Y192605D01*
X224177Y191870D01*
X224739Y191307D01*
X224875Y191251D01*
X224824Y190731D01*
X224651Y190697D01*
X224593Y190658D01*
X224187Y190417D01*
X223780Y190658D01*
X223723Y190697D01*
X223203Y190800D01*
X222684Y190697D01*
X222625Y190657D01*
X222218Y190417D01*
X221812Y190657D01*
X221753Y190697D01*
X221234Y190800D01*
X220714Y190697D01*
X220657Y190658D01*
X220250Y190417D01*
X219843Y190658D01*
X219786Y190697D01*
X219266Y190800D01*
X218747Y190697D01*
X218688Y190657D01*
X218282Y190417D01*
X217875Y190657D01*
X217816Y190697D01*
X217297Y190800D01*
X216777Y190697D01*
X216720Y190658D01*
X216313Y190417D01*
X215906Y190658D01*
X215849Y190697D01*
X215329Y190800D01*
X214810Y190697D01*
X214751Y190657D01*
X214345Y190417D01*
X213938Y190657D01*
X213879Y190697D01*
X213360Y190800D01*
X212840Y190697D01*
X212783Y190658D01*
X212376Y190417D01*
X211969Y190658D01*
X211912Y190697D01*
X211392Y190800D01*
X210873Y190697D01*
X210814Y190657D01*
X210407Y190417D01*
X210001Y190657D01*
X209942Y190697D01*
X209423Y190800D01*
X208903Y190697D01*
X208463Y190402D01*
X208169Y189962D01*
X208065Y189443D01*
Y184600D01*
X208169Y184081D01*
X208463Y183640D01*
X208903Y183346D01*
X209423Y183242D01*
X209942Y183346D01*
X210001Y183385D01*
X210407Y183625D01*
X210814Y183385D01*
X210873Y183346D01*
X211392Y183242D01*
X211912Y183346D01*
X211969Y183384D01*
X212376Y183626D01*
X212783Y183384D01*
X212840Y183346D01*
X213360Y183242D01*
X213879Y183346D01*
X213938Y183385D01*
X214345Y183625D01*
X214751Y183385D01*
X214810Y183346D01*
X215329Y183242D01*
X215849Y183346D01*
X215906Y183384D01*
X216313Y183626D01*
X216720Y183384D01*
X216777Y183346D01*
X217297Y183242D01*
X217816Y183346D01*
X217875Y183385D01*
X218282Y183625D01*
X218688Y183385D01*
X218747Y183346D01*
X219266Y183242D01*
X219786Y183346D01*
X219843Y183384D01*
X220250Y183626D01*
X220657Y183384D01*
X220714Y183346D01*
X221234Y183242D01*
X221753Y183346D01*
X221812Y183385D01*
X222218Y183625D01*
X222625Y183385D01*
X222684Y183346D01*
X223203Y183242D01*
X223723Y183346D01*
X223780Y183384D01*
X224187Y183626D01*
X224593Y183384D01*
X224651Y183346D01*
X225171Y183242D01*
X225196Y183247D01*
X225662Y182899D01*
X225690Y182519D01*
X225445Y182273D01*
X225140Y181538D01*
Y180742D01*
X225445Y180007D01*
X226007Y179445D01*
X226742Y179140D01*
X227538D01*
X228273Y179445D01*
X228836Y180007D01*
X229140Y180742D01*
Y181538D01*
X228836Y182273D01*
X228591Y182518D01*
X228620Y182899D01*
X229085Y183247D01*
X229108Y183242D01*
X229354Y183291D01*
X229854Y182941D01*
Y182923D01*
X229947Y182455D01*
X230212Y182058D01*
X231135Y181135D01*
X231532Y180870D01*
X232000Y180777D01*
X247000D01*
X247468Y180870D01*
X247865Y181135D01*
X249793Y183063D01*
X250059Y183460D01*
X250152Y183928D01*
Y208966D01*
X253543Y212358D01*
X261682D01*
X261929Y211988D01*
X262041Y211913D01*
Y211312D01*
X261929Y211237D01*
X261682Y210868D01*
X254644D01*
X254176Y210774D01*
X253779Y210509D01*
X251992Y208722D01*
X251726Y208325D01*
X251633Y207857D01*
Y182805D01*
X248140Y179312D01*
X236589D01*
X236121Y179219D01*
X235724Y178954D01*
X234357Y177587D01*
X234092Y177190D01*
X233999Y176722D01*
Y176700D01*
X233509D01*
X232752Y176549D01*
X232110Y176120D01*
X231680Y175478D01*
X231530Y174720D01*
Y172437D01*
X231680Y171679D01*
X232110Y171037D01*
X232752Y170608D01*
X233509Y170457D01*
X236935D01*
X237692Y170608D01*
X238335Y171037D01*
X238764Y171679D01*
X238914Y172437D01*
Y174720D01*
X238764Y175478D01*
X238335Y176120D01*
X237968Y176365D01*
X238119Y176865D01*
X242325D01*
X242477Y176365D01*
X242110Y176120D01*
X241681Y175478D01*
X241530Y174720D01*
Y172437D01*
X241681Y171679D01*
X242110Y171037D01*
X242752Y170608D01*
X243510Y170457D01*
X246935D01*
X247692Y170608D01*
X248335Y171037D01*
X248764Y171679D01*
X248914Y172437D01*
Y174720D01*
X248764Y175478D01*
X248335Y176120D01*
X247968Y176365D01*
X248119Y176865D01*
X248647D01*
X249115Y176958D01*
X249512Y177224D01*
X253722Y181433D01*
X253987Y181830D01*
X254080Y182299D01*
Y207350D01*
X255151Y208421D01*
X261682D01*
X261929Y208051D01*
X262041Y207976D01*
Y207375D01*
X261929Y207300D01*
X261622Y206840D01*
X261514Y206298D01*
Y205117D01*
X261622Y204574D01*
X261929Y204114D01*
X262041Y204039D01*
Y203438D01*
X261929Y203363D01*
X261622Y202903D01*
X261514Y202361D01*
Y201180D01*
X261622Y200637D01*
X261929Y200177D01*
X262041Y200102D01*
Y199501D01*
X261930Y199427D01*
X261623Y198967D01*
X261515Y198424D01*
Y197243D01*
X261623Y196701D01*
X261910Y196271D01*
X261930Y196241D01*
X261863Y195684D01*
X261786Y195632D01*
X261434Y195106D01*
X261352Y194695D01*
X265393D01*
X269434D01*
X269352Y195106D01*
X269000Y195632D01*
X268923Y195684D01*
X268856Y196241D01*
X268876Y196271D01*
X269164Y196701D01*
X269271Y197243D01*
Y198424D01*
X269164Y198967D01*
X268856Y199427D01*
X268744Y199501D01*
Y200103D01*
X268856Y200177D01*
X269163Y200637D01*
X269271Y201180D01*
Y202361D01*
X269163Y202903D01*
X268856Y203363D01*
X268744Y203438D01*
Y204039D01*
X268856Y204114D01*
X269163Y204574D01*
X269271Y205117D01*
Y206298D01*
X269163Y206840D01*
X268856Y207300D01*
X268744Y207375D01*
Y207976D01*
X268856Y208051D01*
X269163Y208511D01*
X269271Y209054D01*
Y210235D01*
X269163Y210777D01*
X268856Y211237D01*
X268744Y211312D01*
Y211913D01*
X268856Y211988D01*
X269163Y212448D01*
X269271Y212991D01*
Y214172D01*
X269163Y214714D01*
X268856Y215174D01*
X268396Y215482D01*
X267853Y215589D01*
X262932D01*
X262389Y215482D01*
X261929Y215174D01*
X261682Y214805D01*
X253036D01*
X252568Y214711D01*
X252171Y214446D01*
X248063Y210338D01*
X247798Y209942D01*
X247705Y209473D01*
Y184435D01*
X246493Y183223D01*
X238676D01*
X238469Y183723D01*
X238678Y183932D01*
X238982Y184668D01*
Y185463D01*
X238678Y186198D01*
X238206Y186670D01*
Y191568D01*
X239403D01*
X239923Y191672D01*
X240363Y191966D01*
X240658Y192406D01*
X240761Y192926D01*
X240658Y193445D01*
X240618Y193504D01*
X240363Y193935D01*
X240657Y194375D01*
X240760Y194895D01*
X240657Y195414D01*
X240363Y195855D01*
X240619Y196285D01*
X240658Y196343D01*
X240761Y196863D01*
X240658Y197382D01*
X240618Y197441D01*
X240363Y197872D01*
X240657Y198312D01*
X240760Y198832D01*
X240657Y199351D01*
X240363Y199792D01*
X240619Y200222D01*
X240658Y200280D01*
X240761Y200800D01*
X240658Y201319D01*
X240618Y201378D01*
X240363Y201809D01*
X240657Y202249D01*
X240760Y202769D01*
X240657Y203288D01*
X240363Y203729D01*
X240619Y204159D01*
X240658Y204217D01*
X240761Y204737D01*
X240712Y204982D01*
X241062Y205482D01*
X243206D01*
X243674Y205575D01*
X244071Y205840D01*
X245865Y207635D01*
X246130Y208032D01*
X246223Y208500D01*
Y221685D01*
X247315Y222777D01*
X263326D01*
X263794Y222870D01*
X264191Y223135D01*
X266042Y224986D01*
X266307Y225383D01*
X266400Y225851D01*
Y230745D01*
X266889D01*
X267647Y230895D01*
X268289Y231325D01*
X268718Y231967D01*
X268869Y232724D01*
Y235008D01*
X268718Y235766D01*
X268289Y236408D01*
X267647Y236837D01*
X266889Y236988D01*
X263464D01*
X262706Y236837D01*
X262064Y236408D01*
X261635Y235766D01*
X261484Y235008D01*
Y232724D01*
X261635Y231967D01*
X262064Y231325D01*
X262706Y230895D01*
X263464Y230745D01*
X263953D01*
Y226358D01*
X262819Y225223D01*
X246808D01*
X246340Y225130D01*
X245943Y224865D01*
X244135Y223057D01*
X243870Y222660D01*
X243776Y222192D01*
Y209007D01*
X242699Y207929D01*
X241063D01*
X240712Y208429D01*
X240761Y208674D01*
X240658Y209193D01*
X240618Y209252D01*
X240363Y209683D01*
X240657Y210123D01*
X240761Y210643D01*
X240657Y211162D01*
X240489Y211414D01*
X240508Y211507D01*
X240711Y211811D01*
X240052D01*
X239923Y211897D01*
X239403Y212000D01*
X234560D01*
X234041Y211897D01*
X233911Y211811D01*
X233254D01*
X233457Y211507D01*
X233475Y211415D01*
X233306Y211162D01*
X233203Y210643D01*
X233306Y210123D01*
X233346Y210064D01*
X233601Y209634D01*
X233307Y209193D01*
X233203Y208674D01*
X233307Y208154D01*
X233601Y207714D01*
X233345Y207283D01*
X233306Y207225D01*
X233203Y206706D01*
X233252Y206460D01*
X232902Y205960D01*
X230819D01*
Y206549D01*
X230515Y207284D01*
X229952Y207846D01*
X229217Y208151D01*
X228421D01*
X227686Y207846D01*
X227596Y207756D01*
X227096Y207963D01*
Y212931D01*
X227596Y213138D01*
X227975Y212759D01*
X228710Y212455D01*
X229505D01*
X230241Y212759D01*
X230803Y213322D01*
X231108Y214057D01*
Y214853D01*
X230803Y215588D01*
X230436Y215955D01*
X230467Y216443D01*
X230875Y216746D01*
X231077Y216706D01*
X231597Y216809D01*
X232037Y217104D01*
X232331Y217544D01*
X232435Y218063D01*
Y219261D01*
X233573D01*
X234044Y218790D01*
X234779Y218485D01*
X235446D01*
X235758Y218174D01*
Y215937D01*
X234560D01*
X234041Y215834D01*
X233600Y215540D01*
X233306Y215099D01*
X233203Y214580D01*
X233306Y214060D01*
X233475Y213807D01*
X233457Y213715D01*
X233254Y213411D01*
X233913D01*
X234041Y213325D01*
X234560Y213222D01*
X239403D01*
X239923Y213325D01*
X240051Y213411D01*
X240711D01*
X240508Y213715D01*
X240489Y213808D01*
X240657Y214060D01*
X240761Y214580D01*
X240657Y215099D01*
X240363Y215540D01*
X239922Y215834D01*
X239403Y215937D01*
X238205D01*
Y218680D01*
X238112Y219149D01*
X237847Y219546D01*
X237177Y220216D01*
Y220883D01*
X236872Y221618D01*
X236310Y222181D01*
X235575Y222485D01*
X234779D01*
X234044Y222181D01*
X233571Y221708D01*
X232435D01*
Y222906D01*
X232331Y223426D01*
X232037Y223866D01*
X231597Y224160D01*
X231077Y224264D01*
X230558Y224160D01*
X230499Y224121D01*
X230092Y223881D01*
X229686Y224121D01*
X229627Y224160D01*
X229108Y224264D01*
X228588Y224160D01*
X228531Y224122D01*
X228124Y223880D01*
X227717Y224122D01*
X227660Y224160D01*
X227140Y224264D01*
X226621Y224160D01*
X226562Y224121D01*
X226155Y223881D01*
X225749Y224121D01*
X225690Y224160D01*
X225171Y224264D01*
X224651Y224160D01*
X224593Y224122D01*
X224187Y223880D01*
X223780Y224122D01*
X223723Y224160D01*
X223203Y224264D01*
X222684Y224160D01*
X222625Y224121D01*
X222218Y223881D01*
X221812Y224121D01*
X221753Y224160D01*
X221234Y224264D01*
X221175Y224252D01*
X220721Y224591D01*
X220692Y224994D01*
X221738Y226041D01*
X253341D01*
X253809Y226134D01*
X254206Y226399D01*
X256042Y228235D01*
X256307Y228632D01*
X256400Y229100D01*
Y230745D01*
X256889D01*
X257647Y230895D01*
X258289Y231325D01*
X258718Y231967D01*
X258869Y232724D01*
Y235008D01*
X258718Y235766D01*
X258289Y236408D01*
X257647Y236837D01*
X256889Y236988D01*
X253464D01*
X252707Y236837D01*
X252064Y236408D01*
X251635Y235766D01*
X251484Y235008D01*
Y232724D01*
X251635Y231967D01*
X252064Y231325D01*
X252707Y230895D01*
X253464Y230745D01*
X253953D01*
Y229607D01*
X252834Y228488D01*
X221231D01*
X220763Y228395D01*
X220366Y228129D01*
X218401Y226164D01*
X218136Y225767D01*
X218043Y225299D01*
Y224805D01*
X217543Y224418D01*
X217297Y224467D01*
X217053Y224419D01*
X216553Y224806D01*
Y238822D01*
X218373Y240643D01*
X221501D01*
X221635Y239967D01*
X222064Y239325D01*
X222707Y238895D01*
X223464Y238745D01*
X226889D01*
X227647Y238895D01*
X228289Y239325D01*
X228718Y239967D01*
X228812Y240439D01*
X231541D01*
X231635Y239967D01*
X232064Y239325D01*
X232706Y238895D01*
X233464Y238745D01*
X236889D01*
X237647Y238895D01*
X238289Y239325D01*
X238718Y239967D01*
X238812Y240439D01*
X241541D01*
X241635Y239967D01*
X242064Y239325D01*
X242706Y238895D01*
X243464Y238745D01*
X246889D01*
X247647Y238895D01*
X248289Y239325D01*
X248718Y239967D01*
X248812Y240439D01*
X251541D01*
X251635Y239967D01*
X252064Y239325D01*
X252707Y238895D01*
X253464Y238745D01*
X256889D01*
X257647Y238895D01*
X258289Y239325D01*
X258718Y239967D01*
X258869Y240724D01*
Y243008D01*
X258718Y243766D01*
X258289Y244408D01*
X257647Y244837D01*
X256889Y244988D01*
D02*
G37*
G36*
X266889Y245192D02*
X265977D01*
Y242666D01*
X269073D01*
Y243008D01*
X268907Y243844D01*
X268433Y244552D01*
X267725Y245025D01*
X266889Y245192D01*
D02*
G37*
G36*
X264377D02*
X263464D01*
X262629Y245025D01*
X261920Y244552D01*
X261447Y243844D01*
X261280Y243008D01*
Y242666D01*
X264377D01*
Y245192D01*
D02*
G37*
G36*
X269073Y241066D02*
X265977D01*
Y238541D01*
X266889D01*
X267725Y238707D01*
X268433Y239180D01*
X268907Y239889D01*
X269073Y240724D01*
Y241066D01*
D02*
G37*
G36*
X264377D02*
X261280D01*
Y240724D01*
X261447Y239889D01*
X261920Y239180D01*
X262629Y238707D01*
X263464Y238541D01*
X264377D01*
Y241066D01*
D02*
G37*
G36*
X177357Y238049D02*
X176945Y237967D01*
X176419Y237615D01*
X176367Y237536D01*
X175805Y237477D01*
X175345Y237784D01*
X174803Y237892D01*
X173622D01*
X173079Y237784D01*
X172619Y237477D01*
X172312Y237017D01*
X172204Y236474D01*
Y231553D01*
X172312Y231010D01*
X172619Y230550D01*
X173079Y230243D01*
X173622Y230135D01*
X174803D01*
X175345Y230243D01*
X175777Y230531D01*
X175805Y230550D01*
X176363Y230485D01*
X176419Y230401D01*
X176945Y230049D01*
X177357Y229967D01*
Y234008D01*
Y238049D01*
D02*
G37*
G36*
X246889Y237192D02*
X245977D01*
Y234666D01*
X249073D01*
Y235008D01*
X248907Y235844D01*
X248433Y236552D01*
X247725Y237025D01*
X246889Y237192D01*
D02*
G37*
G36*
X236889D02*
X235977D01*
Y234666D01*
X239073D01*
Y235008D01*
X238907Y235844D01*
X238433Y236552D01*
X237725Y237025D01*
X236889Y237192D01*
D02*
G37*
G36*
X226889D02*
X225977D01*
Y234666D01*
X229073D01*
Y235008D01*
X228907Y235844D01*
X228433Y236552D01*
X227725Y237025D01*
X226889Y237192D01*
D02*
G37*
G36*
X244377D02*
X243464D01*
X242629Y237025D01*
X241920Y236552D01*
X241447Y235844D01*
X241281Y235008D01*
Y234666D01*
X244377D01*
Y237192D01*
D02*
G37*
G36*
X234377D02*
X233464D01*
X232628Y237025D01*
X231920Y236552D01*
X231447Y235844D01*
X231280Y235008D01*
Y234666D01*
X234377D01*
Y237192D01*
D02*
G37*
G36*
X224377D02*
X223464D01*
X222628Y237025D01*
X221920Y236552D01*
X221447Y235844D01*
X221281Y235008D01*
Y234666D01*
X224377D01*
Y237192D01*
D02*
G37*
G36*
X249073Y233066D02*
X245977D01*
Y230541D01*
X246889D01*
X247725Y230707D01*
X248433Y231180D01*
X248907Y231889D01*
X249073Y232724D01*
Y233066D01*
D02*
G37*
G36*
X244377D02*
X241281D01*
Y232724D01*
X241447Y231889D01*
X241920Y231180D01*
X242629Y230707D01*
X243464Y230541D01*
X244377D01*
Y233066D01*
D02*
G37*
G36*
X239073D02*
X235977D01*
Y230541D01*
X236889D01*
X237725Y230707D01*
X238433Y231180D01*
X238907Y231889D01*
X239073Y232724D01*
Y233066D01*
D02*
G37*
G36*
X234377D02*
X231280D01*
Y232724D01*
X231447Y231889D01*
X231920Y231180D01*
X232628Y230707D01*
X233464Y230541D01*
X234377D01*
Y233066D01*
D02*
G37*
G36*
X229073D02*
X225977D01*
Y230541D01*
X226889D01*
X227725Y230707D01*
X228433Y231180D01*
X228907Y231889D01*
X229073Y232724D01*
Y233066D01*
D02*
G37*
G36*
X224377D02*
X221281D01*
Y232724D01*
X221447Y231889D01*
X221920Y231180D01*
X222628Y230707D01*
X223464Y230541D01*
X224377D01*
Y233066D01*
D02*
G37*
G36*
X162247Y222105D02*
X160684D01*
Y219499D01*
X164470D01*
Y219881D01*
X164301Y220732D01*
X163819Y221453D01*
X163098Y221935D01*
X162247Y222105D01*
D02*
G37*
G36*
X279849Y222104D02*
X278287D01*
X277436Y221935D01*
X276715Y221453D01*
X276233Y220731D01*
X276063Y219880D01*
Y219499D01*
X279849D01*
Y222104D01*
D02*
G37*
G36*
X164470Y217899D02*
X160684D01*
Y215295D01*
X162247D01*
X163098Y215464D01*
X163819Y215946D01*
X164301Y216667D01*
X164470Y217518D01*
Y217899D01*
D02*
G37*
G36*
X279849Y217899D02*
X276063D01*
Y217518D01*
X276233Y216667D01*
X276715Y215945D01*
X277436Y215463D01*
X278287Y215294D01*
X279849D01*
Y217899D01*
D02*
G37*
G36*
X162213Y203932D02*
X160651D01*
Y201327D01*
X164437D01*
Y201708D01*
X164268Y202559D01*
X163785Y203281D01*
X163064Y203763D01*
X162213Y203932D01*
D02*
G37*
G36*
X164437Y199727D02*
X160651D01*
Y197122D01*
X162213D01*
X163064Y197291D01*
X163785Y197774D01*
X164268Y198495D01*
X164437Y199346D01*
Y199727D01*
D02*
G37*
G36*
X269434Y193095D02*
X266193D01*
Y191683D01*
X267854D01*
X268474Y191806D01*
X269000Y192158D01*
X269352Y192684D01*
X269434Y193095D01*
D02*
G37*
G36*
X264593D02*
X261352D01*
X261434Y192684D01*
X261786Y192158D01*
X262312Y191806D01*
X262932Y191683D01*
X264593D01*
Y193095D01*
D02*
G37*
G36*
X279851Y192181D02*
X278289D01*
X277438Y192012D01*
X276716Y191530D01*
X276234Y190808D01*
X276065Y189957D01*
Y189576D01*
X279851D01*
Y192181D01*
D02*
G37*
G36*
Y187976D02*
X276065D01*
Y187595D01*
X276234Y186744D01*
X276716Y186022D01*
X277438Y185540D01*
X278289Y185371D01*
X279851D01*
Y187976D01*
D02*
G37*
G36*
X201037Y180337D02*
Y177390D01*
X199436D01*
Y180337D01*
X199094Y180269D01*
X198584Y179928D01*
X198488Y179784D01*
X198005D01*
X197561Y180080D01*
X197038Y180184D01*
X195955D01*
X195432Y180080D01*
X194988Y179784D01*
X194692Y179340D01*
X194588Y178817D01*
Y175962D01*
X194678Y175506D01*
X194581Y175232D01*
X194460Y175006D01*
X188858D01*
X188764Y175478D01*
X188335Y176120D01*
X187692Y176549D01*
X186935Y176700D01*
X183510D01*
X182752Y176549D01*
X182110Y176120D01*
X181681Y175478D01*
X181587Y175006D01*
X178858D01*
X178764Y175478D01*
X178335Y176120D01*
X177692Y176549D01*
X176935Y176700D01*
X173510D01*
X172752Y176549D01*
X172110Y176120D01*
X171680Y175478D01*
X171530Y174720D01*
Y172437D01*
X171680Y171679D01*
X172110Y171037D01*
X172752Y170608D01*
X173510Y170457D01*
X176935D01*
X177692Y170608D01*
X178335Y171037D01*
X178764Y171679D01*
X178858Y172151D01*
X181587D01*
X181681Y171679D01*
X182110Y171037D01*
X182752Y170608D01*
X183510Y170457D01*
X186935D01*
X187692Y170608D01*
X188335Y171037D01*
X188764Y171679D01*
X188858Y172151D01*
X203008D01*
X203008Y172151D01*
X203554Y172260D01*
X204017Y172569D01*
X204986Y173538D01*
X204986Y173538D01*
X205295Y174001D01*
X205404Y174547D01*
X205404Y174547D01*
Y174941D01*
X205485Y174995D01*
X205782Y175439D01*
X205886Y175962D01*
Y178817D01*
X205782Y179340D01*
X205485Y179784D01*
X205041Y180080D01*
X204518Y180184D01*
X203435D01*
X202912Y180080D01*
X202468Y179784D01*
X201986D01*
X201889Y179928D01*
X201379Y180269D01*
X201037Y180337D01*
D02*
G37*
G36*
X256935Y176904D02*
X256022D01*
Y174379D01*
X259118D01*
Y174720D01*
X258952Y175556D01*
X258479Y176264D01*
X257770Y176738D01*
X256935Y176904D01*
D02*
G37*
G36*
X226935D02*
X226022D01*
Y174379D01*
X229118D01*
Y174720D01*
X228952Y175556D01*
X228479Y176264D01*
X227770Y176738D01*
X226935Y176904D01*
D02*
G37*
G36*
X216935D02*
X216022D01*
Y174379D01*
X219118D01*
Y174720D01*
X218952Y175556D01*
X218479Y176264D01*
X217770Y176738D01*
X216935Y176904D01*
D02*
G37*
G36*
X224422D02*
X223510D01*
X222674Y176738D01*
X221965Y176264D01*
X221492Y175556D01*
X221326Y174720D01*
Y174379D01*
X224422D01*
Y176904D01*
D02*
G37*
G36*
X214422D02*
X213509D01*
X212674Y176738D01*
X211965Y176264D01*
X211492Y175556D01*
X211326Y174720D01*
Y174379D01*
X214422D01*
Y176904D01*
D02*
G37*
G36*
X254422D02*
X253509D01*
X252674Y176738D01*
X251965Y176264D01*
X251492Y175556D01*
X251326Y174720D01*
Y174379D01*
X254422D01*
Y176904D01*
D02*
G37*
G36*
X266935Y176700D02*
X263509D01*
X262752Y176549D01*
X262110Y176120D01*
X261681Y175478D01*
X261530Y174720D01*
Y172437D01*
X261681Y171679D01*
X262110Y171037D01*
X262752Y170608D01*
X263509Y170457D01*
X266935D01*
X267692Y170608D01*
X268335Y171037D01*
X268764Y171679D01*
X268914Y172437D01*
Y174720D01*
X268764Y175478D01*
X268335Y176120D01*
X267692Y176549D01*
X266935Y176700D01*
D02*
G37*
G36*
X259118Y172778D02*
X256022D01*
Y170253D01*
X256935D01*
X257770Y170419D01*
X258479Y170893D01*
X258952Y171601D01*
X259118Y172437D01*
Y172778D01*
D02*
G37*
G36*
X254422D02*
X251326D01*
Y172437D01*
X251492Y171601D01*
X251965Y170893D01*
X252674Y170419D01*
X253509Y170253D01*
X254422D01*
Y172778D01*
D02*
G37*
G36*
X229118D02*
X226022D01*
Y170253D01*
X226935D01*
X227770Y170419D01*
X228479Y170893D01*
X228952Y171601D01*
X229118Y172437D01*
Y172778D01*
D02*
G37*
G36*
X224422D02*
X221326D01*
Y172437D01*
X221492Y171601D01*
X221965Y170893D01*
X222674Y170419D01*
X223510Y170253D01*
X224422D01*
Y172778D01*
D02*
G37*
G36*
X219118D02*
X216022D01*
Y170253D01*
X216935D01*
X217770Y170419D01*
X218479Y170893D01*
X218952Y171601D01*
X219118Y172437D01*
Y172778D01*
D02*
G37*
G36*
X214422D02*
X211326D01*
Y172437D01*
X211492Y171601D01*
X211965Y170893D01*
X212674Y170419D01*
X213509Y170253D01*
X214422D01*
Y172778D01*
D02*
G37*
G36*
X246935Y168700D02*
X243510D01*
X242752Y168549D01*
X242110Y168120D01*
X241681Y167478D01*
X241587Y167006D01*
X238858D01*
X238764Y167478D01*
X238335Y168120D01*
X237692Y168549D01*
X236935Y168700D01*
X233509D01*
X232752Y168549D01*
X232110Y168120D01*
X231680Y167478D01*
X231587Y167006D01*
X228858D01*
X228764Y167478D01*
X228335Y168120D01*
X227692Y168549D01*
X226935Y168700D01*
X223510D01*
X222752Y168549D01*
X222110Y168120D01*
X221680Y167478D01*
X221587Y167006D01*
X218858D01*
X218764Y167478D01*
X218335Y168120D01*
X217692Y168549D01*
X216935Y168700D01*
X213509D01*
X212752Y168549D01*
X212110Y168120D01*
X211681Y167478D01*
X211587Y167006D01*
X205886D01*
X205782Y167529D01*
X205485Y167973D01*
X205041Y168269D01*
X204518Y168373D01*
X203435D01*
X202912Y168269D01*
X202468Y167973D01*
X202172Y167529D01*
X202068Y167006D01*
Y164151D01*
X202172Y163628D01*
X202468Y163184D01*
X202912Y162888D01*
X203435Y162784D01*
X204518D01*
X205041Y162888D01*
X205485Y163184D01*
X205782Y163628D01*
X205886Y164151D01*
X211587D01*
X211681Y163679D01*
X212110Y163037D01*
X212752Y162608D01*
X213509Y162457D01*
X216935D01*
X217692Y162608D01*
X218335Y163037D01*
X218764Y163679D01*
X218858Y164151D01*
X221587D01*
X221680Y163679D01*
X222110Y163037D01*
X222752Y162608D01*
X223510Y162457D01*
X226935D01*
X227692Y162608D01*
X228335Y163037D01*
X228764Y163679D01*
X228858Y164151D01*
X231587D01*
X231680Y163679D01*
X232110Y163037D01*
X232752Y162608D01*
X233509Y162457D01*
X236935D01*
X237692Y162608D01*
X238335Y163037D01*
X238764Y163679D01*
X238858Y164151D01*
X241587D01*
X241681Y163679D01*
X242110Y163037D01*
X242752Y162608D01*
X243510Y162457D01*
X246935D01*
X247692Y162608D01*
X248335Y163037D01*
X248764Y163679D01*
X248914Y164437D01*
Y166720D01*
X248764Y167478D01*
X248335Y168120D01*
X247692Y168549D01*
X246935Y168700D01*
D02*
G37*
G36*
X266935D02*
X263509D01*
X262752Y168549D01*
X262110Y168120D01*
X261681Y167478D01*
X261546Y166802D01*
X258898D01*
X258764Y167478D01*
X258335Y168120D01*
X257692Y168549D01*
X256935Y168700D01*
X253509D01*
X252752Y168549D01*
X252110Y168120D01*
X251680Y167478D01*
X251530Y166720D01*
Y164437D01*
X251680Y163679D01*
X252110Y163037D01*
X252752Y162608D01*
X253509Y162457D01*
X256935D01*
X257692Y162608D01*
X258335Y163037D01*
X258764Y163679D01*
X258898Y164355D01*
X261546D01*
X261681Y163679D01*
X262110Y163037D01*
X262752Y162608D01*
X263509Y162457D01*
X266935D01*
X267692Y162608D01*
X268335Y163037D01*
X268764Y163679D01*
X268914Y164437D01*
Y166720D01*
X268764Y167478D01*
X268335Y168120D01*
X267692Y168549D01*
X266935Y168700D01*
D02*
G37*
G36*
X186935Y168904D02*
X186022D01*
Y166378D01*
X189118D01*
Y166720D01*
X188952Y167556D01*
X188479Y168264D01*
X187770Y168738D01*
X186935Y168904D01*
D02*
G37*
G36*
X184422D02*
X183510D01*
X182674Y168738D01*
X181965Y168264D01*
X181492Y167556D01*
X181326Y166720D01*
Y166378D01*
X184422D01*
Y168904D01*
D02*
G37*
G36*
X197038Y168373D02*
X195955D01*
X195432Y168269D01*
X194988Y167973D01*
X194692Y167529D01*
X194588Y167006D01*
Y164151D01*
X194692Y163628D01*
X194988Y163184D01*
X195432Y162888D01*
X195955Y162784D01*
X197038D01*
X197561Y162888D01*
X198005Y163184D01*
X198301Y163628D01*
X198405Y164151D01*
Y167006D01*
X198301Y167529D01*
X198005Y167973D01*
X197561Y168269D01*
X197038Y168373D01*
D02*
G37*
G36*
X172000Y195337D02*
X162000D01*
X160878Y195189D01*
X159831Y194756D01*
X158933Y194067D01*
X158244Y193169D01*
X157811Y192122D01*
X157663Y191000D01*
X157811Y189877D01*
X158244Y188831D01*
X158933Y187933D01*
X159831Y187244D01*
X160878Y186811D01*
X162000Y186663D01*
X165573D01*
Y167000D01*
X165573Y167000D01*
X165681Y166454D01*
X165991Y165991D01*
X167412Y164569D01*
X167412Y164569D01*
X167875Y164260D01*
X168421Y164151D01*
X171587D01*
X171680Y163679D01*
X172110Y163037D01*
X172752Y162608D01*
X173510Y162457D01*
X176935D01*
X177692Y162608D01*
X178335Y163037D01*
X178764Y163679D01*
X178914Y164437D01*
Y166720D01*
X178764Y167478D01*
X178335Y168120D01*
X177692Y168549D01*
X176935Y168700D01*
X173510D01*
X172752Y168549D01*
X172110Y168120D01*
X171680Y167478D01*
X171587Y167006D01*
X169013D01*
X168427Y167591D01*
Y186663D01*
X172000D01*
X173123Y186811D01*
X174169Y187244D01*
X175067Y187933D01*
X175756Y188831D01*
X176189Y189877D01*
X176337Y191000D01*
X176189Y192122D01*
X175756Y193169D01*
X175067Y194067D01*
X174169Y194756D01*
X173123Y195189D01*
X172000Y195337D01*
D02*
G37*
G36*
X189118Y164778D02*
X186022D01*
Y162253D01*
X186935D01*
X187770Y162419D01*
X188479Y162893D01*
X188952Y163601D01*
X189118Y164437D01*
Y164778D01*
D02*
G37*
G36*
X184422D02*
X181326D01*
Y164437D01*
X181492Y163601D01*
X181965Y162893D01*
X182674Y162419D01*
X183510Y162253D01*
X184422D01*
Y164778D01*
D02*
G37*
%LPD*%
G36*
X208199Y238822D02*
Y223471D01*
X208169Y223426D01*
X208065Y222906D01*
Y218063D01*
X208169Y217544D01*
X208463Y217104D01*
X208903Y216809D01*
X209423Y216706D01*
X209942Y216809D01*
X210001Y216849D01*
X210407Y217089D01*
X210814Y216849D01*
X210873Y216809D01*
X211392Y216706D01*
X211912Y216809D01*
X211969Y216848D01*
X212376Y217089D01*
X212783Y216848D01*
X212840Y216809D01*
X213360Y216706D01*
X213606Y216755D01*
X214106Y216405D01*
Y195990D01*
X212265Y194150D01*
X207838D01*
X207452Y194650D01*
X207500Y194895D01*
X207382Y195493D01*
X207043Y195999D01*
X207025Y196091D01*
X207194Y196344D01*
X207297Y196863D01*
X207194Y197383D01*
X207154Y197442D01*
X206899Y197872D01*
X207193Y198313D01*
X207296Y198832D01*
X207193Y199352D01*
X206899Y199792D01*
X207155Y200223D01*
X207194Y200281D01*
X207297Y200800D01*
X207194Y201320D01*
X207154Y201379D01*
X206899Y201809D01*
X207193Y202250D01*
X207296Y202769D01*
X207193Y203289D01*
X206899Y203729D01*
X207155Y204160D01*
X207194Y204218D01*
X207297Y204737D01*
X207194Y205257D01*
X207154Y205316D01*
X206899Y205746D01*
X207193Y206187D01*
X207297Y206706D01*
X207193Y207226D01*
X206899Y207666D01*
X207155Y208097D01*
X207194Y208155D01*
X207297Y208674D01*
X207194Y209194D01*
X207154Y209253D01*
X206899Y209683D01*
X207193Y210124D01*
X207297Y210643D01*
X207193Y211163D01*
X206899Y211603D01*
X207155Y212034D01*
X207194Y212092D01*
X207297Y212611D01*
X207194Y213131D01*
X207154Y213190D01*
X206899Y213620D01*
X207193Y214061D01*
X207297Y214580D01*
X207193Y215100D01*
X206899Y215540D01*
X206458Y215834D01*
X205939Y215938D01*
X201097D01*
X200577Y215834D01*
X200531Y215804D01*
X185136D01*
X183317Y217623D01*
Y230297D01*
X183687Y230545D01*
X183759Y230654D01*
X184361D01*
X184429Y230551D01*
X184889Y230244D01*
X185432Y230136D01*
X186613D01*
X187155Y230244D01*
X187615Y230551D01*
X187692Y230666D01*
X188293D01*
X188374Y230545D01*
X188835Y230238D01*
X189377Y230130D01*
X190558D01*
X191101Y230238D01*
X191561Y230545D01*
X191635Y230657D01*
X192237D01*
X192312Y230545D01*
X192771Y230238D01*
X193314Y230130D01*
X194495D01*
X195038Y230238D01*
X195498Y230545D01*
X195572Y230657D01*
X196174D01*
X196248Y230545D01*
X196709Y230238D01*
X197251Y230130D01*
X198432D01*
X198975Y230238D01*
X199435Y230545D01*
X199507Y230654D01*
X200109D01*
X200177Y230551D01*
X200637Y230244D01*
X201180Y230136D01*
X202361D01*
X202903Y230244D01*
X203363Y230551D01*
X203671Y231011D01*
X203779Y231554D01*
Y236475D01*
X203671Y237018D01*
X203363Y237478D01*
X202903Y237785D01*
X202361Y237893D01*
X201180D01*
X200637Y237785D01*
X200177Y237478D01*
X200104Y237369D01*
X199503D01*
X199435Y237471D01*
X198975Y237778D01*
X198432Y237886D01*
X197251D01*
X196709Y237778D01*
X196248Y237471D01*
X196174Y237359D01*
X195572D01*
X195498Y237471D01*
X195038Y237778D01*
X194495Y237886D01*
X193314D01*
X192771Y237778D01*
X192312Y237471D01*
X192237Y237359D01*
X191635D01*
X191561Y237471D01*
X191101Y237778D01*
X190558Y237886D01*
X189377D01*
X188835Y237778D01*
X188374Y237471D01*
X188298Y237356D01*
X187696D01*
X187615Y237478D01*
X187246Y237725D01*
Y238813D01*
X189070Y240638D01*
X206383D01*
X208199Y238822D01*
D02*
G37*
G36*
X233252Y201045D02*
X233203Y200800D01*
X233307Y200280D01*
X233601Y199840D01*
X233345Y199409D01*
X233306Y199351D01*
X233203Y198832D01*
X233306Y198312D01*
X233346Y198253D01*
X233601Y197823D01*
X233307Y197382D01*
X233203Y196863D01*
X233307Y196343D01*
X233601Y195903D01*
X233345Y195472D01*
X233306Y195414D01*
X233203Y194895D01*
X233306Y194375D01*
X233346Y194316D01*
X233601Y193886D01*
X233307Y193445D01*
X233203Y192926D01*
X233307Y192406D01*
X233601Y191966D01*
X234041Y191672D01*
X234561Y191568D01*
X235759D01*
Y186670D01*
X235287Y186198D01*
X234982Y185463D01*
Y184668D01*
X235287Y183932D01*
X235495Y183723D01*
X235288Y183223D01*
X232507D01*
X232301Y183430D01*
Y184035D01*
X232331Y184081D01*
X232435Y184600D01*
Y189443D01*
X232331Y189962D01*
X232037Y190402D01*
X231597Y190697D01*
X231077Y190800D01*
X230558Y190697D01*
X230499Y190657D01*
X230092Y190417D01*
X229686Y190657D01*
X229627Y190697D01*
X229108Y190800D01*
X228588Y190697D01*
X228531Y190658D01*
X228124Y190417D01*
X227717Y190658D01*
X227660Y190697D01*
X227140Y190800D01*
X227039Y190780D01*
X226893Y191261D01*
X227005Y191307D01*
X227568Y191870D01*
X227872Y192605D01*
Y193401D01*
X227568Y194136D01*
X227096Y194608D01*
Y199541D01*
X227596Y199749D01*
X227685Y199659D01*
X228421Y199355D01*
X229216D01*
X229951Y199659D01*
X230514Y200222D01*
X230818Y200957D01*
Y201545D01*
X232902D01*
X233252Y201045D01*
D02*
G37*
D12*
X203518Y194895D02*
X210395D01*
X225872Y193003D02*
Y214872D01*
X227140Y216140D02*
Y220485D01*
X225872Y214872D02*
X227140Y216140D01*
X229108Y214455D02*
Y220485D01*
X193706Y194895D02*
X203518D01*
X217297Y220485D02*
Y230297D01*
X177637Y196863D02*
X203518D01*
X175140Y199360D02*
Y205643D01*
Y199360D02*
X177637Y196863D01*
X181000Y200399D02*
Y211903D01*
X175140Y213518D02*
X179385D01*
X181000Y211903D01*
X182567Y198832D02*
X203518D01*
X181000Y200399D02*
X182567Y198832D01*
X182093Y217116D02*
X184629Y214580D01*
X203518D01*
X182093Y217116D02*
Y234008D01*
X186022Y239320D02*
X188564Y241861D01*
X206890D02*
X209423Y239329D01*
X188564Y241861D02*
X206890D01*
X186022Y234014D02*
Y239320D01*
X209423Y220485D02*
Y239329D01*
X203518Y192926D02*
X212772D01*
X215329Y195483D02*
Y220485D01*
X212772Y192926D02*
X215329Y195483D01*
X219266Y225299D02*
X221231Y227264D01*
X219266Y220485D02*
Y225299D01*
X221231Y227264D02*
X253341D01*
X255177Y229100D02*
Y233866D01*
X253341Y227264D02*
X255177Y229100D01*
X246808Y224000D02*
X263326D01*
X265177Y225851D02*
Y233866D01*
X263326Y224000D02*
X265177Y225851D01*
X245000Y208500D02*
Y222192D01*
X246808Y224000D01*
X236589Y178089D02*
X248647D01*
X252857Y182299D02*
Y207857D01*
X248647Y178089D02*
X252857Y182299D01*
X253036Y213581D02*
X265393D01*
X248928Y183928D02*
Y209473D01*
X253036Y213581D01*
X254644Y209644D02*
X265393D01*
X252857Y207857D02*
X254644Y209644D01*
X235222Y176722D02*
X236589Y178089D01*
X235222Y173579D02*
Y176722D01*
X247000Y182000D02*
X248928Y183928D01*
X236982Y214580D02*
Y218680D01*
X235177Y220485D02*
X236982Y218680D01*
X231077Y220485D02*
X235177D01*
X186500Y192926D02*
X203518D01*
X228818Y201355D02*
X230233Y202769D01*
X228819Y206151D02*
X230233Y204737D01*
X230233Y202769D02*
X236982D01*
X221234Y213736D02*
X222648Y212321D01*
X217852D02*
X219266Y213736D01*
X215329Y220485D02*
Y239329D01*
X217866Y241866D01*
X225177D01*
X243206Y206706D02*
X245000Y208500D01*
X236982Y206706D02*
X243206D01*
X232000Y182000D02*
X247000D01*
X231077Y182923D02*
X232000Y182000D01*
X231077Y182923D02*
Y187021D01*
X230233Y204737D02*
X236982D01*
X219266Y213736D02*
Y220485D01*
X221234Y213736D02*
Y220485D01*
X236982Y185065D02*
Y192926D01*
X227140Y181140D02*
Y187021D01*
X255222Y165578D02*
X265222D01*
D14*
X265392Y213581D02*
D03*
Y209644D02*
D03*
Y205707D02*
D03*
Y201770D02*
D03*
X175140Y205643D02*
D03*
D15*
X265393Y197834D02*
D03*
Y193895D02*
D03*
X175140Y213518D02*
D03*
Y209581D02*
D03*
D16*
X280649Y218699D02*
D03*
X280651Y188776D02*
D03*
D17*
X265222Y165578D02*
D03*
Y173579D02*
D03*
X245222Y165578D02*
D03*
Y173579D02*
D03*
X255222D02*
D03*
Y165578D02*
D03*
X235222D02*
D03*
Y173579D02*
D03*
X225222D02*
D03*
Y165578D02*
D03*
X215222D02*
D03*
Y173579D02*
D03*
X185222D02*
D03*
Y165578D02*
D03*
X175222Y173579D02*
D03*
Y165578D02*
D03*
X225177Y233866D02*
D03*
Y241866D02*
D03*
X235177Y233866D02*
D03*
Y241866D02*
D03*
X245177Y233866D02*
D03*
Y241866D02*
D03*
X255177Y233866D02*
D03*
Y241866D02*
D03*
X265177D02*
D03*
Y233866D02*
D03*
D18*
X203977Y177390D02*
D03*
X196496D02*
D03*
Y165578D02*
D03*
X203977D02*
D03*
D19*
X200237Y177390D02*
D03*
D20*
X159851Y200527D02*
D03*
X159884Y218700D02*
D03*
D21*
X169063Y249274D02*
D03*
X206909Y249270D02*
D03*
D22*
X174212Y234014D02*
D03*
X186022Y234015D02*
D03*
X201770D02*
D03*
D23*
X178157Y234008D02*
D03*
X182094D02*
D03*
X189968D02*
D03*
X193905D02*
D03*
X197842D02*
D03*
D24*
X231077Y220485D02*
D03*
X229108D02*
D03*
X227140D02*
D03*
X225171D02*
D03*
X223203D02*
D03*
X221234D02*
D03*
X219266D02*
D03*
X217297D02*
D03*
X215329D02*
D03*
X213360D02*
D03*
X211392D02*
D03*
X209423D02*
D03*
Y187021D02*
D03*
X211392D02*
D03*
X213360D02*
D03*
X215329D02*
D03*
X217297D02*
D03*
X219266D02*
D03*
X221234D02*
D03*
X223203D02*
D03*
X225171D02*
D03*
X227140D02*
D03*
X229108D02*
D03*
X231077D02*
D03*
D25*
X203518Y214580D02*
D03*
X203518Y212611D02*
D03*
X203518Y210643D02*
D03*
X203518Y208674D02*
D03*
X203518Y206706D02*
D03*
X203518Y204737D02*
D03*
X203518Y202769D02*
D03*
X203518Y200800D02*
D03*
X203518Y198832D02*
D03*
X203518Y196863D02*
D03*
X203518Y194895D02*
D03*
X203518Y192926D02*
D03*
X236982Y192926D02*
D03*
X236982Y194895D02*
D03*
X236982Y196863D02*
D03*
X236982Y198832D02*
D03*
X236982Y200800D02*
D03*
X236982Y202769D02*
D03*
X236982Y204737D02*
D03*
X236982Y206706D02*
D03*
X236982Y208674D02*
D03*
X236982Y210643D02*
D03*
X236982Y212611D02*
D03*
X236982Y214580D02*
D03*
D39*
X167000Y191000D02*
D03*
D40*
X225222Y165578D02*
X235222D01*
X245222D01*
X215222D02*
X225222D01*
X203977D02*
X215222D01*
X225177Y241866D02*
X235177D01*
X245177D01*
X255177D01*
X196496Y173579D02*
Y177390D01*
X175222Y173579D02*
X185222D01*
X203008D01*
X203977Y174547D02*
Y177390D01*
X203008Y173579D02*
X203977Y174547D01*
X167000Y167000D02*
Y191000D01*
Y167000D02*
X168421Y165578D01*
X175222D01*
D41*
X189500Y183577D02*
D03*
X230500Y197000D02*
D03*
X240500Y220500D02*
D03*
X225872Y193003D02*
D03*
X229108Y214455D02*
D03*
X265222Y173579D02*
D03*
X211000Y211500D02*
D03*
Y198000D02*
D03*
X189500Y223000D02*
D03*
X167746Y159253D02*
D03*
X182746D02*
D03*
X197746D02*
D03*
X212746D02*
D03*
X227746D02*
D03*
X242746D02*
D03*
X257746D02*
D03*
X272746D02*
D03*
Y248252D02*
D03*
X257746D02*
D03*
X242746D02*
D03*
X227746D02*
D03*
X212746D02*
D03*
X197746D02*
D03*
X182746D02*
D03*
X265393Y193895D02*
D03*
X178156Y234008D02*
D03*
X245222Y165578D02*
D03*
X235222D02*
D03*
X255177Y241866D02*
D03*
X245177D02*
D03*
X236982Y185065D02*
D03*
X235177Y220485D02*
D03*
X186500Y193000D02*
D03*
X228819Y206151D02*
D03*
X228818Y201355D02*
D03*
X222648Y212321D02*
D03*
X217852D02*
D03*
X235177Y241866D02*
D03*
X225222Y165578D02*
D03*
X215222D02*
D03*
X245222Y173579D02*
D03*
X265393Y197833D02*
D03*
Y205707D02*
D03*
Y209644D02*
D03*
X227140Y181140D02*
D03*
X201770Y234014D02*
D03*
X197841Y234008D02*
D03*
X193904D02*
D03*
X189967D02*
D03*
X174212Y234014D02*
D03*
X225177Y241866D02*
D03*
M02*
